<?xml version="1.0" encoding="UTF-8"?>
<svg xmlns="http://www.w3.org/2000/svg" xmlns:xlink="http://www.w3.org/1999/xlink" viewBox="0 0 1300 1300" width="1300" height="1300">
<style>
  .bg { fill: #0c1116; }
.panel { fill: #11161c; stroke: #2a3340; stroke-width: 1; }
.grid { stroke: #1c2430; stroke-width: 1; }
.axis { stroke: #4a5260; stroke-width: 1; }
.ground { stroke: #6b5a26; stroke-width: 1.5; stroke-dasharray: 4 3; }
.tick { fill: #7a8290; font: 11px monospace; }
.title { fill: #d6deea; font: 14px monospace; font-weight: bold; }
.subtitle { fill: #7a8290; font: 11px monospace; }
.summary { fill: #d6deea; font: 13px monospace; }
.summary-dim { fill: #7a8290; font: 12px monospace; }
.track { fill: none; stroke-width: 1.8; }
.start { stroke-width: 1.2; }
.end { stroke-width: 1.0; }
</style>
<rect class="bg" width="1300" height="1300" />
<g transform="translate(60,60)">
<rect class="panel" width="560" height="560" />
<text class="title" x="10" y="18">SIDE  X x Y</text>
<text class="subtitle" x="10" y="32">X -&gt; range (horiz),  Y -&gt; alt (vert)</text>
<line class="grid" x1="60.0" y1="50.0" x2="60.0" y2="520.0" />
<line class="grid" x1="60.0" y1="520.0" x2="530.0" y2="520.0" />
<text class="tick" x="60.0" y="534.0" text-anchor="middle">-225</text>
<text class="tick" x="56.0" y="524.0" text-anchor="end">0</text>
<line class="grid" x1="154.0" y1="50.0" x2="154.0" y2="520.0" />
<line class="grid" x1="60.0" y1="426.0" x2="530.0" y2="426.0" />
<text class="tick" x="154.0" y="534.0" text-anchor="middle">-75</text>
<text class="tick" x="56.0" y="430.0" text-anchor="end">150</text>
<line class="grid" x1="248.0" y1="50.0" x2="248.0" y2="520.0" />
<line class="grid" x1="60.0" y1="332.0" x2="530.0" y2="332.0" />
<text class="tick" x="248.0" y="534.0" text-anchor="middle">75</text>
<text class="tick" x="56.0" y="336.0" text-anchor="end">300</text>
<line class="grid" x1="342.0" y1="50.0" x2="342.0" y2="520.0" />
<line class="grid" x1="60.0" y1="238.0" x2="530.0" y2="238.0" />
<text class="tick" x="342.0" y="534.0" text-anchor="middle">225</text>
<text class="tick" x="56.0" y="242.0" text-anchor="end">450</text>
<line class="grid" x1="436.0" y1="50.0" x2="436.0" y2="520.0" />
<line class="grid" x1="60.0" y1="144.0" x2="530.0" y2="144.0" />
<text class="tick" x="436.0" y="534.0" text-anchor="middle">375</text>
<text class="tick" x="56.0" y="148.0" text-anchor="end">600</text>
<line class="grid" x1="530.0" y1="50.0" x2="530.0" y2="520.0" />
<line class="grid" x1="60.0" y1="50.0" x2="530.0" y2="50.0" />
<text class="tick" x="530.0" y="534.0" text-anchor="middle">525</text>
<text class="tick" x="56.0" y="54.0" text-anchor="end">750</text>
<line class="axis" x1="60.0" y1="50.0" x2="60.0" y2="520.0" />
<line class="axis" x1="60.0" y1="520.0" x2="530.0" y2="520.0" />
<line class="ground" x1="60.0" y1="520.0" x2="530.0" y2="520.0" />
<path class="track" stroke="#5cff90" d="M 201.2 457.3 L 203.1 457.3 L 204.9 457.3 L 206.7 457.3 L 208.6 457.3 L 210.4 457.3 L 212.3 457.3 L 214.1 457.3 L 216.0 457.3 L 217.9 457.3 L 219.8 457.3 L 221.6 457.3 L 223.5 457.3 L 225.4 457.3 L 227.3 457.3 L 229.2 457.3 L 231.1 457.3 L 232.9 457.3 L 234.8 457.3 L 236.7 457.3 L 238.6 457.3 L 240.5 457.3 L 242.3 457.3 L 244.2 457.3 L 246.1 457.3 L 248.0 457.3 L 249.9 457.3 L 251.7 457.3 L 253.6 457.3 L 255.5 457.3 L 257.4 457.3 L 259.3 457.3 L 261.1 457.3 L 263.0 457.3 L 264.9 457.3 L 266.8 457.3 L 268.7 457.3 L 270.5 457.3 L 272.4 457.3 L 274.3 457.3 L 276.2 457.3 L 278.1 457.3 L 279.9 457.3 L 281.8 457.3 L 283.7 457.3 L 285.6 457.3 L 287.5 457.3 L 289.3 457.3 L 291.2 457.3 L 293.1 457.3 L 295.0 457.3 L 296.9 457.3 L 298.7 457.3 L 300.6 457.3 L 302.5 457.3 L 304.4 457.3 L 306.3 457.3 L 308.1 457.3 L 310.0 457.3 L 311.9 457.3 L 313.8 457.3 L 315.7 457.3 L 317.5 457.3 L 319.4 457.3 L 321.3 457.3 L 323.2 457.3 L 325.0 457.3 L 326.9 457.3 L 328.8 457.3 L 330.7 457.3 L 332.5 457.3 L 334.4 457.3 L 336.3 457.3 L 338.1 457.3 L 340.0 457.3 L 341.8 457.3 L 343.7 457.3 L 345.5 457.3 L 347.4 457.3 L 349.2 457.3 L 351.0 457.3 L 352.9 457.3 L 354.7 457.3 L 356.5 457.3 L 358.3 457.3 L 360.1 457.3 L 361.9 457.3 L 363.7 457.3 L 365.5 457.3 L 367.2 457.3 L 369.0 457.3 L 370.8 457.3 L 372.5 457.3 L 374.3 457.3 L 376.0 457.3 L 377.7 457.3 L 379.4 457.3 L 381.1 457.3 L 382.8 457.3 L 384.5 457.3 L 386.2 457.3 L 387.8 457.3 L 389.5 457.3 L 391.1 457.3 L 392.8 457.3 L 394.4 457.3 L 396.0 457.3 L 397.6 457.3 L 399.2 457.3 L 400.7 457.3 L 402.3 457.3 L 403.9 457.3 L 405.4 457.3 L 406.9 457.3 L 408.4 457.3 L 409.9 457.3 L 411.4 457.3 L 412.9 457.3 L 414.3 457.3 L 415.7 457.3 L 417.2 457.3 L 418.6 457.3 L 420.0 457.3 L 421.3 457.3 L 422.7 457.3 L 424.0 457.3 L 425.4 457.3 L 426.7 457.3 L 428.0 457.3 L 429.3 457.3 L 430.5 457.3 L 431.8 457.3 L 433.0 457.3 L 434.2 457.3 L 435.4 457.3 L 436.6 457.3 L 437.8 457.3 L 438.9 457.3 L 440.0 457.3 L 441.1 457.3 L 442.2 457.3 L 443.3 457.3 L 444.3 457.3 L 445.4 457.3 L 446.4 457.3 L 447.4 457.3 L 448.4 457.3 L 449.3 457.3 L 450.3 457.3 L 451.2 457.3 L 452.1 457.3 L 452.9 457.3 L 453.8 457.3 L 454.6 457.3 L 455.5 457.3 L 456.3 457.3 L 457.0 457.3 L 457.8 457.3 L 458.5 457.3 L 459.2 457.3 L 459.9 457.3 L 460.6 457.3 L 461.3 457.3 L 461.9 457.3 L 462.5 457.3 L 463.1 457.3 L 463.6 457.3 L 464.2 457.3 L 464.7 457.3 L 465.2 457.3 L 465.7 457.3 L 466.1 457.3 L 466.6 457.3 L 467.0 457.3 L 467.4 457.3 L 467.7 457.3 L 468.1 457.3 L 468.4 457.3 L 468.7 457.3 L 469.0 457.3 L 469.3 457.3 L 469.5 457.3 L 469.7 457.3 L 469.9 457.3 L 470.1 457.3 L 470.2 457.3 L 470.3 457.3 L 470.4 457.3 L 470.5 457.3 L 470.6 457.3 L 470.6 457.3 L 470.6 457.3 L 470.6 457.3 L 470.5 457.3 L 470.5 457.3 L 470.4 457.3 L 470.3 457.3 L 470.2 457.3 L 470.0 457.3 L 469.9 457.3 L 469.7 457.3" />
<circle cx="201.2" cy="457.3" r="4" fill="none" stroke="#5cff90" stroke-width="1.4" />
<circle cx="469.7" cy="457.3" r="4" fill="#5cff90" />
<path class="track" stroke="#5c9aff" d="M 191.8 457.3 L 193.7 457.3 L 195.5 457.3 L 197.3 457.3 L 199.2 457.3 L 201.0 457.3 L 202.9 457.3 L 204.7 457.3 L 206.6 457.3 L 208.5 457.3 L 210.4 457.3 L 212.2 457.3 L 214.1 457.3 L 216.0 457.3 L 217.9 457.3 L 219.8 457.3 L 221.7 457.3 L 223.5 457.3 L 225.4 457.3 L 227.3 457.3 L 229.2 457.3 L 231.1 457.3 L 232.9 457.3 L 234.8 457.3 L 236.7 457.3 L 238.6 457.3 L 240.5 457.3 L 242.3 457.3 L 244.2 457.3 L 246.1 457.3 L 248.0 457.3 L 249.9 457.3 L 251.7 457.3 L 253.6 457.3 L 255.5 457.3 L 257.4 457.3 L 259.3 457.3 L 261.1 457.3 L 263.0 457.3 L 264.9 457.3 L 266.8 457.3 L 268.7 457.3 L 270.5 457.3 L 272.4 457.3 L 274.3 457.3 L 276.2 457.3 L 278.1 457.3 L 279.9 457.3 L 281.8 457.3 L 283.7 457.3 L 285.6 457.3 L 287.5 457.3 L 289.3 457.3 L 291.2 457.3 L 293.1 457.3 L 295.0 457.3 L 296.9 457.3 L 298.7 457.3 L 300.6 457.3 L 302.5 457.3 L 304.4 457.3 L 306.3 457.3 L 308.2 457.3 L 310.1 457.3 L 312.1 457.3 L 314.0 457.3 L 316.0 457.3 L 317.9 457.3 L 319.9 457.3 L 321.8 457.3 L 323.8 457.3 L 325.7 457.3 L 327.7 457.3 L 329.6 457.3 L 331.5 457.3 L 333.5 457.3 L 335.4 457.3 L 337.3 457.3 L 339.3 457.3 L 341.2 457.3 L 343.1 457.3 L 345.0 457.3 L 346.9 457.3 L 348.8 457.3 L 350.7 457.3 L 352.6 457.3 L 354.5 457.3 L 356.4 457.3 L 358.2 457.3 L 360.1 457.3 L 362.0 457.3 L 363.8 457.3 L 365.7 457.3 L 367.5 457.3 L 369.3 457.3 L 371.2 457.3 L 373.0 457.3 L 374.8 457.3 L 376.6 457.3 L 378.4 457.3 L 380.1 457.3 L 381.9 457.3 L 383.7 457.3 L 385.4 457.3 L 387.2 457.3 L 388.9 457.3 L 390.6 457.3 L 392.3 457.3 L 394.0 457.3 L 395.7 457.3 L 397.4 457.3 L 399.0 457.3 L 400.7 457.3 L 402.3 457.3 L 403.9 457.3 L 405.5 457.3 L 407.1 457.3 L 408.7 457.3 L 410.3 457.3 L 411.8 457.3 L 413.4 457.3 L 414.9 457.3 L 416.4 457.3 L 417.9 457.3 L 419.4 457.3 L 420.9 457.3 L 422.3 457.3 L 423.8 457.3 L 425.2 457.3 L 426.6 457.3 L 428.0 457.3 L 429.4 457.3 L 430.7 457.3 L 432.1 457.3 L 433.4 457.3 L 434.7 457.3 L 436.0 457.3 L 437.2 457.3 L 438.5 457.3 L 439.7 457.3 L 440.9 457.3 L 442.1 457.3 L 443.3 457.3 L 444.5 457.3 L 445.6 457.3 L 446.7 457.3 L 447.8 457.3 L 448.9 457.3 L 450.0 457.3 L 451.0 457.3 L 452.1 457.3 L 453.1 457.3 L 454.0 457.3 L 455.0 457.3 L 456.0 457.3 L 456.9 457.3 L 457.8 457.3 L 458.7 457.3 L 459.5 457.3 L 460.4 457.3 L 461.2 457.3 L 462.0 457.3 L 462.8 457.3 L 463.5 457.3 L 464.3 457.3 L 465.0 457.3 L 465.7 457.3 L 466.3 457.3 L 467.0 457.3 L 467.6 457.3 L 468.2 457.3 L 468.8 457.3 L 469.3 457.3 L 469.9 457.3 L 470.4 457.3 L 470.9 457.3 L 471.4 457.3 L 471.8 457.3 L 472.2 457.3 L 472.6 457.3 L 473.0 457.3 L 473.4 457.3 L 473.7 457.3 L 474.0 457.3 L 474.3 457.3 L 474.5 457.3 L 474.8 457.3 L 475.0 457.3 L 475.2 457.3 L 475.4 457.3 L 475.5 457.3 L 475.6 457.3 L 475.7 457.3 L 475.8 457.3 L 475.9 457.3 L 475.9 457.3 L 475.9 457.3 L 475.9 457.3 L 475.8 457.3 L 475.8 457.3 L 475.7 457.3" />
<circle cx="191.8" cy="457.3" r="4" fill="none" stroke="#5c9aff" stroke-width="1.4" />
<circle cx="475.7" cy="457.3" r="4" fill="#5c9aff" />
<path class="track" stroke="#ff5c5c" d="M 191.8 457.3 L 193.7 457.3 L 195.5 457.3 L 197.3 457.3 L 199.2 457.3 L 201.0 457.3 L 202.9 457.3 L 204.7 457.3 L 206.6 457.3 L 208.5 457.3 L 210.4 457.3 L 212.2 457.3 L 214.1 457.3 L 216.0 457.3 L 217.9 457.3 L 219.8 457.3 L 221.7 457.3 L 223.5 457.3 L 225.4 457.3 L 227.3 457.3 L 229.2 457.3 L 231.1 457.3 L 232.9 457.3 L 234.8 457.3 L 236.7 457.3 L 238.6 457.3 L 240.5 457.3 L 242.3 457.3 L 244.2 457.3 L 246.1 457.3 L 248.0 457.3 L 249.9 457.3 L 251.7 457.3 L 253.6 457.3 L 255.5 457.3 L 257.4 457.3 L 259.3 457.3 L 261.1 457.3 L 263.0 457.3 L 264.9 457.3 L 266.8 457.3 L 268.7 457.3 L 270.5 457.3 L 272.4 457.3 L 274.3 457.3 L 276.2 457.3 L 278.1 457.3 L 279.9 457.3 L 281.8 457.3 L 283.7 457.3 L 285.6 457.3 L 287.5 457.3 L 289.3 457.3 L 291.2 457.3 L 293.1 457.3 L 295.0 457.3 L 296.9 457.3 L 298.7 457.3 L 300.6 457.3 L 302.5 457.3 L 304.4 457.3 L 306.2 457.3 L 308.1 457.3 L 309.9 457.3 L 311.7 457.3 L 313.5 457.3 L 315.3 457.3 L 317.2 457.3 L 319.0 457.3 L 320.8 457.3 L 322.6 457.3 L 324.4 457.3 L 326.2 457.3 L 328.1 457.3 L 329.9 457.3 L 331.7 457.3 L 333.5 457.3 L 335.3 457.3 L 337.1 457.3 L 338.9 457.3 L 340.7 457.3 L 342.5 457.3 L 344.3 457.3 L 346.1 457.3 L 347.9 457.3 L 349.6 457.3 L 351.4 457.3 L 353.2 457.3 L 354.9 457.3 L 356.7 457.3 L 358.4 457.3 L 360.2 457.3 L 361.9 457.3 L 363.6 457.3 L 365.4 457.3 L 367.1 457.3 L 368.8 457.3 L 370.5 457.3 L 372.2 457.3 L 373.8 457.3 L 375.5 457.3 L 377.2 457.3 L 378.8 457.3 L 380.5 457.3 L 382.1 457.3 L 383.7 457.3 L 385.4 457.3 L 387.0 457.3 L 388.6 457.3 L 390.1 457.3 L 391.7 457.3 L 393.3 457.3 L 394.8 457.3 L 396.4 457.3 L 397.9 457.3 L 399.4 457.3 L 400.9 457.3 L 402.4 457.3 L 403.9 457.3 L 405.3 457.3 L 406.8 457.3 L 408.2 457.3 L 409.6 457.3 L 411.1 457.3 L 412.5 457.3 L 413.8 457.3 L 415.2 457.3 L 416.6 457.3 L 417.9 457.3 L 419.2 457.3 L 420.5 457.3 L 421.8 457.3 L 423.1 457.3 L 424.4 457.3 L 425.6 457.3 L 426.8 457.3 L 428.0 457.3 L 429.2 457.3 L 430.4 457.3 L 431.6 457.3 L 432.7 457.3 L 433.9 457.3 L 435.0 457.3 L 436.1 457.3 L 437.1 457.3 L 438.2 457.3 L 439.2 457.3 L 440.3 457.3 L 441.3 457.3 L 442.2 457.3 L 443.2 457.3 L 444.2 457.3 L 445.1 457.3 L 446.0 457.3 L 446.9 457.3 L 447.8 457.3 L 448.6 457.3 L 449.5 457.3 L 450.3 457.3 L 451.1 457.3 L 451.8 457.3 L 452.6 457.3 L 453.3 457.3 L 454.1 457.3 L 454.7 457.3 L 455.4 457.3 L 456.1 457.3 L 456.7 457.3 L 457.3 457.3 L 457.9 457.3 L 458.5 457.3 L 459.0 457.3 L 459.6 457.3 L 460.1 457.3 L 460.6 457.3 L 461.0 457.3 L 461.5 457.3 L 461.9 457.3 L 462.3 457.3 L 462.7 457.3 L 463.1 457.3 L 463.4 457.3 L 463.7 457.3 L 464.0 457.3 L 464.3 457.3 L 464.5 457.3 L 464.8 457.3 L 465.0 457.3 L 465.2 457.3 L 465.3 457.3 L 465.5 457.3 L 465.6 457.3 L 465.7 457.3 L 465.8 457.3 L 465.8 457.3 L 465.9 457.3 L 465.9 457.3 L 465.9 457.3 L 465.8 457.3 L 465.8 457.3 L 465.7 457.3" />
<circle cx="191.8" cy="457.3" r="4" fill="none" stroke="#ff5c5c" stroke-width="1.4" />
<circle cx="465.7" cy="457.3" r="4" fill="#ff5c5c" />
<path class="track" stroke="#ffd45c" d="M 182.4 457.3 L 184.3 457.3 L 186.1 457.3 L 187.9 457.3 L 189.8 457.3 L 191.6 457.3 L 193.5 457.3 L 195.3 457.3 L 197.2 457.3 L 199.1 457.3 L 201.0 457.3 L 202.8 457.3 L 204.7 457.3 L 206.6 457.3 L 208.5 457.3 L 210.4 457.3 L 212.3 457.3 L 214.1 457.3 L 216.0 457.3 L 217.9 457.3 L 219.8 457.3 L 221.7 457.3 L 223.5 457.3 L 225.4 457.3 L 227.3 457.3 L 229.2 457.3 L 231.1 457.3 L 232.9 457.3 L 234.8 457.3 L 236.7 457.3 L 238.6 457.3 L 240.5 457.3 L 242.3 457.3 L 244.2 457.3 L 246.1 457.3 L 248.0 457.3 L 249.9 457.3 L 251.7 457.3 L 253.6 457.3 L 255.5 457.3 L 257.4 457.3 L 259.3 457.3 L 261.1 457.3 L 263.0 457.3 L 264.9 457.3 L 266.8 457.3 L 268.7 457.3 L 270.5 457.3 L 272.4 457.3 L 274.3 457.3 L 276.2 457.3 L 278.1 457.3 L 279.9 457.3 L 281.8 457.3 L 283.7 457.3 L 285.6 457.3 L 287.5 457.3 L 289.3 457.3 L 291.2 457.3 L 293.1 457.3 L 295.0 457.3 L 296.9 457.3 L 298.8 457.3 L 300.8 457.3 L 302.9 457.3 L 304.9 457.3 L 306.9 457.3 L 308.9 457.3 L 311.0 457.3 L 313.0 457.3 L 315.0 457.3 L 317.1 457.3 L 319.1 457.3 L 321.1 457.3 L 323.1 457.3 L 325.1 457.3 L 327.1 457.3 L 329.1 457.3 L 331.1 457.3 L 333.1 457.3 L 335.1 457.3 L 337.1 457.3 L 339.1 457.3 L 341.1 457.3 L 343.1 457.3 L 345.1 457.3 L 347.1 457.3 L 349.0 457.3 L 351.0 457.3 L 353.0 457.3 L 354.9 457.3 L 356.9 457.3 L 358.8 457.3 L 360.7 457.3 L 362.7 457.3 L 364.6 457.3 L 366.5 457.3 L 368.4 457.3 L 370.3 457.3 L 372.2 457.3 L 374.1 457.3 L 376.0 457.3 L 377.8 457.3 L 379.7 457.3 L 381.5 457.3 L 383.4 457.3 L 385.2 457.3 L 387.0 457.3 L 388.8 457.3 L 390.6 457.3 L 392.4 457.3 L 394.2 457.3 L 396.0 457.3 L 397.7 457.3 L 399.5 457.3 L 401.2 457.3 L 402.9 457.3 L 404.6 457.3 L 406.3 457.3 L 408.0 457.3 L 409.6 457.3 L 411.3 457.3 L 412.9 457.3 L 414.5 457.3 L 416.1 457.3 L 417.7 457.3 L 419.3 457.3 L 420.8 457.3 L 422.4 457.3 L 423.9 457.3 L 425.4 457.3 L 426.9 457.3 L 428.4 457.3 L 429.9 457.3 L 431.3 457.3 L 432.8 457.3 L 434.2 457.3 L 435.6 457.3 L 436.9 457.3 L 438.3 457.3 L 439.6 457.3 L 441.0 457.3 L 442.3 457.3 L 443.6 457.3 L 444.8 457.3 L 446.1 457.3 L 447.3 457.3 L 448.5 457.3 L 449.7 457.3 L 450.9 457.3 L 452.0 457.3 L 453.2 457.3 L 454.3 457.3 L 455.4 457.3 L 456.5 457.3 L 457.5 457.3 L 458.5 457.3 L 459.5 457.3 L 460.5 457.3 L 461.5 457.3 L 462.5 457.3 L 463.4 457.3 L 464.3 457.3 L 465.2 457.3 L 466.0 457.3 L 466.9 457.3 L 467.7 457.3 L 468.5 457.3 L 469.2 457.3 L 470.0 457.3 L 470.7 457.3 L 471.4 457.3 L 472.1 457.3 L 472.8 457.3 L 473.4 457.3 L 474.0 457.3 L 474.6 457.3 L 475.2 457.3 L 475.7 457.3 L 476.2 457.3 L 476.7 457.3 L 477.2 457.3 L 477.7 457.3 L 478.1 457.3 L 478.5 457.3 L 478.9 457.3 L 479.2 457.3 L 479.6 457.3 L 479.9 457.3 L 480.2 457.3 L 480.4 457.3 L 480.6 457.3 L 480.9 457.3 L 481.0 457.3 L 481.2 457.3 L 481.4 457.3 L 481.5 457.3 L 481.6 457.3 L 481.6 457.3 L 481.7 457.3 L 481.7 457.3" />
<circle cx="182.4" cy="457.3" r="4" fill="none" stroke="#ffd45c" stroke-width="1.4" />
<circle cx="481.7" cy="457.3" r="4" fill="#ffd45c" />
<path class="track" stroke="#c45cff" d="M 182.4 457.3 L 184.3 457.3 L 186.1 457.3 L 187.9 457.3 L 189.8 457.3 L 191.6 457.3 L 193.5 457.3 L 195.3 457.3 L 197.2 457.3 L 199.1 457.3 L 201.0 457.3 L 202.8 457.3 L 204.7 457.3 L 206.6 457.3 L 208.5 457.3 L 210.4 457.3 L 212.3 457.3 L 214.1 457.3 L 216.0 457.3 L 217.9 457.3 L 219.8 457.3 L 221.7 457.3 L 223.5 457.3 L 225.4 457.3 L 227.3 457.3 L 229.2 457.3 L 231.1 457.3 L 232.9 457.3 L 234.8 457.3 L 236.7 457.3 L 238.6 457.3 L 240.5 457.3 L 242.3 457.3 L 244.2 457.3 L 246.1 457.3 L 248.0 457.3 L 249.9 457.3 L 251.7 457.3 L 253.6 457.3 L 255.5 457.3 L 257.4 457.3 L 259.3 457.3 L 261.1 457.3 L 263.0 457.3 L 264.9 457.3 L 266.8 457.3 L 268.7 457.3 L 270.5 457.3 L 272.4 457.3 L 274.3 457.3 L 276.2 457.3 L 278.1 457.3 L 279.9 457.3 L 281.8 457.3 L 283.7 457.3 L 285.6 457.3 L 287.5 457.3 L 289.3 457.3 L 291.2 457.3 L 293.1 457.3 L 295.0 457.3 L 296.8 457.3 L 298.6 457.3 L 300.4 457.3 L 302.2 457.3 L 303.9 457.3 L 305.6 457.3 L 307.4 457.3 L 309.1 457.3 L 310.9 457.3 L 312.7 457.3 L 314.4 457.3 L 316.2 457.3 L 318.0 457.3 L 319.8 457.3 L 321.5 457.3 L 323.3 457.3 L 325.1 457.3 L 326.9 457.3 L 328.6 457.3 L 330.4 457.3 L 332.2 457.3 L 333.9 457.3 L 335.7 457.3 L 337.4 457.3 L 339.2 457.3 L 340.9 457.3 L 342.7 457.3 L 344.4 457.3 L 346.1 457.3 L 347.9 457.3 L 349.6 457.3 L 351.3 457.3 L 353.0 457.3 L 354.7 457.3 L 356.4 457.3 L 358.1 457.3 L 359.8 457.3 L 361.5 457.3 L 363.2 457.3 L 364.9 457.3 L 366.5 457.3 L 368.2 457.3 L 369.8 457.3 L 371.5 457.3 L 373.1 457.3 L 374.7 457.3 L 376.3 457.3 L 377.9 457.3 L 379.5 457.3 L 381.1 457.3 L 382.7 457.3 L 384.3 457.3 L 385.8 457.3 L 387.4 457.3 L 388.9 457.3 L 390.4 457.3 L 391.9 457.3 L 393.4 457.3 L 394.9 457.3 L 396.4 457.3 L 397.9 457.3 L 399.3 457.3 L 400.8 457.3 L 402.2 457.3 L 403.6 457.3 L 405.0 457.3 L 406.4 457.3 L 407.8 457.3 L 409.2 457.3 L 410.5 457.3 L 411.8 457.3 L 413.2 457.3 L 414.5 457.3 L 415.8 457.3 L 417.1 457.3 L 418.3 457.3 L 419.6 457.3 L 420.8 457.3 L 422.0 457.3 L 423.2 457.3 L 424.4 457.3 L 425.6 457.3 L 426.7 457.3 L 427.9 457.3 L 429.0 457.3 L 430.1 457.3 L 431.2 457.3 L 432.3 457.3 L 433.3 457.3 L 434.4 457.3 L 435.4 457.3 L 436.4 457.3 L 437.4 457.3 L 438.3 457.3 L 439.3 457.3 L 440.2 457.3 L 441.1 457.3 L 442.0 457.3 L 442.9 457.3 L 443.8 457.3 L 444.6 457.3 L 445.4 457.3 L 446.2 457.3 L 447.0 457.3 L 447.8 457.3 L 448.5 457.3 L 449.2 457.3 L 449.9 457.3 L 450.6 457.3 L 451.3 457.3 L 451.9 457.3 L 452.6 457.3 L 453.2 457.3 L 453.8 457.3 L 454.3 457.3 L 454.9 457.3 L 455.4 457.3 L 455.9 457.3 L 456.4 457.3 L 456.8 457.3 L 457.3 457.3 L 457.7 457.3 L 458.1 457.3 L 458.5 457.3 L 458.9 457.3 L 459.2 457.3 L 459.5 457.3 L 459.8 457.3 L 460.1 457.3 L 460.3 457.3 L 460.6 457.3 L 460.8 457.3 L 461.0 457.3 L 461.2 457.3 L 461.3 457.3 L 461.4 457.3 L 461.5 457.3 L 461.6 457.3 L 461.7 457.3 L 461.7 457.3" />
<circle cx="182.4" cy="457.3" r="4" fill="none" stroke="#c45cff" stroke-width="1.4" />
<circle cx="461.7" cy="457.3" r="4" fill="#c45cff" />
</g>
<g transform="translate(680,60)">
<rect class="panel" width="560" height="560" />
<text class="title" x="10" y="18">TOP   X x Z</text>
<text class="subtitle" x="10" y="32">X -&gt; range (horiz),  Z -&gt; cross (vert)</text>
<line class="grid" x1="60.0" y1="50.0" x2="60.0" y2="520.0" />
<line class="grid" x1="60.0" y1="520.0" x2="530.0" y2="520.0" />
<text class="tick" x="60.0" y="534.0" text-anchor="middle">-225</text>
<text class="tick" x="56.0" y="524.0" text-anchor="end">-225</text>
<line class="grid" x1="154.0" y1="50.0" x2="154.0" y2="520.0" />
<line class="grid" x1="60.0" y1="426.0" x2="530.0" y2="426.0" />
<text class="tick" x="154.0" y="534.0" text-anchor="middle">-75</text>
<text class="tick" x="56.0" y="430.0" text-anchor="end">-75</text>
<line class="grid" x1="248.0" y1="50.0" x2="248.0" y2="520.0" />
<line class="grid" x1="60.0" y1="332.0" x2="530.0" y2="332.0" />
<text class="tick" x="248.0" y="534.0" text-anchor="middle">75</text>
<text class="tick" x="56.0" y="336.0" text-anchor="end">75</text>
<line class="grid" x1="342.0" y1="50.0" x2="342.0" y2="520.0" />
<line class="grid" x1="60.0" y1="238.0" x2="530.0" y2="238.0" />
<text class="tick" x="342.0" y="534.0" text-anchor="middle">225</text>
<text class="tick" x="56.0" y="242.0" text-anchor="end">225</text>
<line class="grid" x1="436.0" y1="50.0" x2="436.0" y2="520.0" />
<line class="grid" x1="60.0" y1="144.0" x2="530.0" y2="144.0" />
<text class="tick" x="436.0" y="534.0" text-anchor="middle">375</text>
<text class="tick" x="56.0" y="148.0" text-anchor="end">375</text>
<line class="grid" x1="530.0" y1="50.0" x2="530.0" y2="520.0" />
<line class="grid" x1="60.0" y1="50.0" x2="530.0" y2="50.0" />
<text class="tick" x="530.0" y="534.0" text-anchor="middle">525</text>
<text class="tick" x="56.0" y="54.0" text-anchor="end">525</text>
<line class="axis" x1="60.0" y1="50.0" x2="60.0" y2="520.0" />
<line class="axis" x1="60.0" y1="520.0" x2="530.0" y2="520.0" />
<path class="track" stroke="#5cff90" d="M 201.2 379.0 L 203.1 379.0 L 204.9 379.0 L 206.7 379.0 L 208.6 379.0 L 210.4 379.0 L 212.3 379.0 L 214.1 379.0 L 216.0 379.0 L 217.9 379.0 L 219.8 379.0 L 221.6 379.0 L 223.5 379.0 L 225.4 379.0 L 227.3 379.0 L 229.2 379.0 L 231.1 379.0 L 232.9 379.0 L 234.8 379.0 L 236.7 379.0 L 238.6 379.0 L 240.5 379.0 L 242.3 379.0 L 244.2 379.0 L 246.1 379.0 L 248.0 379.0 L 249.9 379.0 L 251.7 379.0 L 253.6 379.0 L 255.5 379.0 L 257.4 379.0 L 259.3 379.0 L 261.1 379.0 L 263.0 379.0 L 264.9 379.0 L 266.8 379.0 L 268.7 379.0 L 270.5 379.0 L 272.4 379.0 L 274.3 379.0 L 276.2 379.0 L 278.1 379.0 L 279.9 379.0 L 281.8 379.0 L 283.7 379.0 L 285.6 379.0 L 287.5 379.0 L 289.3 379.0 L 291.2 379.0 L 293.1 379.0 L 295.0 379.0 L 296.9 379.0 L 298.7 379.0 L 300.6 379.0 L 302.5 379.0 L 304.4 379.0 L 306.3 379.0 L 308.1 379.0 L 310.0 379.0 L 311.9 379.0 L 313.8 379.0 L 315.7 379.0 L 317.5 379.0 L 319.4 379.0 L 321.3 378.9 L 323.2 378.8 L 325.0 378.7 L 326.9 378.6 L 328.8 378.4 L 330.7 378.2 L 332.5 378.0 L 334.4 377.8 L 336.3 377.5 L 338.1 377.2 L 340.0 376.9 L 341.8 376.6 L 343.7 376.3 L 345.5 375.9 L 347.4 375.5 L 349.2 375.1 L 351.0 374.6 L 352.9 374.2 L 354.7 373.7 L 356.5 373.2 L 358.3 372.7 L 360.1 372.1 L 361.9 371.6 L 363.7 371.0 L 365.5 370.4 L 367.2 369.7 L 369.0 369.1 L 370.8 368.4 L 372.5 367.7 L 374.3 367.0 L 376.0 366.3 L 377.7 365.5 L 379.4 364.7 L 381.1 363.9 L 382.8 363.1 L 384.5 362.3 L 386.2 361.4 L 387.8 360.5 L 389.5 359.6 L 391.1 358.7 L 392.8 357.8 L 394.4 356.8 L 396.0 355.9 L 397.6 354.9 L 399.2 353.8 L 400.7 352.8 L 402.3 351.8 L 403.9 350.7 L 405.4 349.6 L 406.9 348.5 L 408.4 347.4 L 409.9 346.2 L 411.4 345.1 L 412.9 343.9 L 414.3 342.7 L 415.7 341.5 L 417.2 340.2 L 418.6 339.0 L 420.0 337.7 L 421.3 336.4 L 422.7 335.1 L 424.0 333.8 L 425.4 332.5 L 426.7 331.1 L 428.0 329.8 L 429.3 328.4 L 430.5 327.0 L 431.8 325.6 L 433.0 324.2 L 434.2 322.7 L 435.4 321.3 L 436.6 319.8 L 437.8 318.3 L 438.9 316.9 L 440.0 315.3 L 441.1 313.8 L 442.2 312.3 L 443.3 310.7 L 444.3 309.2 L 445.4 307.6 L 446.4 306.0 L 447.4 304.4 L 448.4 302.8 L 449.3 301.2 L 450.3 299.6 L 451.2 297.9 L 452.1 296.3 L 452.9 294.6 L 453.8 292.9 L 454.6 291.2 L 455.5 289.5 L 456.3 287.8 L 457.0 286.1 L 457.8 284.4 L 458.5 282.7 L 459.2 280.9 L 459.9 279.2 L 460.6 277.4 L 461.3 275.7 L 461.9 273.9 L 462.5 272.1 L 463.1 270.3 L 463.6 268.5 L 464.2 266.7 L 464.7 264.9 L 465.2 263.1 L 465.7 261.3 L 466.1 259.5 L 466.6 257.6 L 467.0 255.8 L 467.4 253.9 L 467.7 252.1 L 468.1 250.3 L 468.4 248.4 L 468.7 246.5 L 469.0 244.7 L 469.3 242.8 L 469.5 240.9 L 469.7 239.1 L 469.9 237.2 L 470.1 235.3 L 470.2 233.5 L 470.3 231.6 L 470.4 229.7 L 470.5 227.8 L 470.6 225.9 L 470.6 224.1 L 470.6 222.2 L 470.6 220.3 L 470.5 218.4 L 470.5 216.5 L 470.4 214.7 L 470.3 212.8 L 470.2 210.9 L 470.0 209.0 L 469.9 207.1 L 469.7 205.5" />
<circle cx="201.2" cy="379.0" r="4" fill="none" stroke="#5cff90" stroke-width="1.4" />
<circle cx="469.7" cy="205.5" r="4" fill="#5cff90" />
<path class="track" stroke="#5c9aff" d="M 191.8 384.0 L 193.7 384.0 L 195.5 384.0 L 197.3 384.0 L 199.2 384.0 L 201.0 384.0 L 202.9 384.0 L 204.7 384.0 L 206.6 384.0 L 208.5 384.0 L 210.4 384.0 L 212.2 384.0 L 214.1 384.0 L 216.0 384.0 L 217.9 384.0 L 219.8 384.0 L 221.7 384.0 L 223.5 384.0 L 225.4 384.0 L 227.3 384.0 L 229.2 384.0 L 231.1 384.0 L 232.9 384.0 L 234.8 384.0 L 236.7 384.0 L 238.6 384.0 L 240.5 384.0 L 242.3 384.0 L 244.2 384.0 L 246.1 384.0 L 248.0 384.0 L 249.9 384.0 L 251.7 384.0 L 253.6 384.0 L 255.5 384.0 L 257.4 384.0 L 259.3 384.0 L 261.1 384.0 L 263.0 384.0 L 264.9 384.0 L 266.8 384.0 L 268.7 384.0 L 270.5 384.0 L 272.4 384.0 L 274.3 384.0 L 276.2 384.0 L 278.1 384.0 L 279.9 384.0 L 281.8 384.0 L 283.7 384.0 L 285.6 384.0 L 287.5 384.0 L 289.3 384.0 L 291.2 384.0 L 293.1 384.0 L 295.0 384.0 L 296.9 384.0 L 298.7 384.0 L 300.6 384.0 L 302.5 384.0 L 304.4 384.0 L 306.3 384.0 L 308.2 384.1 L 310.1 384.2 L 312.1 384.2 L 314.0 384.3 L 316.0 384.3 L 317.9 384.3 L 319.9 384.3 L 321.8 384.2 L 323.8 384.1 L 325.7 384.0 L 327.7 383.8 L 329.6 383.7 L 331.5 383.5 L 333.5 383.2 L 335.4 383.0 L 337.3 382.7 L 339.3 382.4 L 341.2 382.1 L 343.1 381.8 L 345.0 381.4 L 346.9 381.0 L 348.8 380.6 L 350.7 380.2 L 352.6 379.7 L 354.5 379.2 L 356.4 378.7 L 358.2 378.2 L 360.1 377.7 L 362.0 377.1 L 363.8 376.5 L 365.7 375.9 L 367.5 375.3 L 369.3 374.6 L 371.2 373.9 L 373.0 373.2 L 374.8 372.5 L 376.6 371.8 L 378.4 371.0 L 380.1 370.2 L 381.9 369.4 L 383.7 368.6 L 385.4 367.7 L 387.2 366.9 L 388.9 366.0 L 390.6 365.1 L 392.3 364.1 L 394.0 363.2 L 395.7 362.2 L 397.4 361.2 L 399.0 360.2 L 400.7 359.2 L 402.3 358.1 L 403.9 357.0 L 405.5 356.0 L 407.1 354.8 L 408.7 353.7 L 410.3 352.6 L 411.8 351.4 L 413.4 350.2 L 414.9 349.0 L 416.4 347.8 L 417.9 346.5 L 419.4 345.3 L 420.9 344.0 L 422.3 342.7 L 423.8 341.4 L 425.2 340.1 L 426.6 338.7 L 428.0 337.4 L 429.4 336.0 L 430.7 334.6 L 432.1 333.2 L 433.4 331.8 L 434.7 330.3 L 436.0 328.9 L 437.2 327.4 L 438.5 325.9 L 439.7 324.4 L 440.9 322.9 L 442.1 321.3 L 443.3 319.8 L 444.5 318.2 L 445.6 316.7 L 446.7 315.1 L 447.8 313.5 L 448.9 311.9 L 450.0 310.2 L 451.0 308.6 L 452.1 306.9 L 453.1 305.3 L 454.0 303.6 L 455.0 301.9 L 456.0 300.2 L 456.9 298.5 L 457.8 296.8 L 458.7 295.0 L 459.5 293.3 L 460.4 291.5 L 461.2 289.8 L 462.0 288.0 L 462.8 286.2 L 463.5 284.4 L 464.3 282.6 L 465.0 280.8 L 465.7 279.0 L 466.3 277.2 L 467.0 275.3 L 467.6 273.5 L 468.2 271.6 L 468.8 269.8 L 469.3 267.9 L 469.9 266.1 L 470.4 264.2 L 470.9 262.3 L 471.4 260.4 L 471.8 258.5 L 472.2 256.6 L 472.6 254.7 L 473.0 252.8 L 473.4 250.9 L 473.7 249.0 L 474.0 247.1 L 474.3 245.1 L 474.5 243.2 L 474.8 241.3 L 475.0 239.3 L 475.2 237.4 L 475.4 235.5 L 475.5 233.5 L 475.6 231.6 L 475.7 229.6 L 475.8 227.7 L 475.9 225.8 L 475.9 223.8 L 475.9 221.9 L 475.9 219.9 L 475.8 218.0 L 475.8 216.0 L 475.7 214.3" />
<circle cx="191.8" cy="384.0" r="4" fill="none" stroke="#5c9aff" stroke-width="1.4" />
<circle cx="475.7" cy="214.3" r="4" fill="#5c9aff" />
<path class="track" stroke="#ff5c5c" d="M 191.8 374.0 L 193.7 374.0 L 195.5 374.0 L 197.3 374.0 L 199.2 374.0 L 201.0 374.0 L 202.9 374.0 L 204.7 374.0 L 206.6 374.0 L 208.5 374.0 L 210.4 374.0 L 212.2 374.0 L 214.1 374.0 L 216.0 374.0 L 217.9 374.0 L 219.8 374.0 L 221.7 374.0 L 223.5 374.0 L 225.4 374.0 L 227.3 374.0 L 229.2 374.0 L 231.1 374.0 L 232.9 374.0 L 234.8 374.0 L 236.7 374.0 L 238.6 374.0 L 240.5 374.0 L 242.3 374.0 L 244.2 374.0 L 246.1 374.0 L 248.0 374.0 L 249.9 374.0 L 251.7 374.0 L 253.6 374.0 L 255.5 374.0 L 257.4 374.0 L 259.3 374.0 L 261.1 374.0 L 263.0 374.0 L 264.9 374.0 L 266.8 374.0 L 268.7 374.0 L 270.5 374.0 L 272.4 374.0 L 274.3 374.0 L 276.2 374.0 L 278.1 374.0 L 279.9 374.0 L 281.8 374.0 L 283.7 374.0 L 285.6 374.0 L 287.5 374.0 L 289.3 374.0 L 291.2 374.0 L 293.1 374.0 L 295.0 374.0 L 296.9 374.0 L 298.7 374.0 L 300.6 374.0 L 302.5 374.0 L 304.4 374.0 L 306.2 374.0 L 308.1 374.1 L 309.9 374.2 L 311.7 374.2 L 313.5 374.3 L 315.3 374.3 L 317.2 374.3 L 319.0 374.3 L 320.8 374.2 L 322.6 374.2 L 324.4 374.0 L 326.2 373.9 L 328.1 373.7 L 329.9 373.6 L 331.7 373.4 L 333.5 373.1 L 335.3 372.9 L 337.1 372.6 L 338.9 372.3 L 340.7 372.0 L 342.5 371.7 L 344.3 371.3 L 346.1 370.9 L 347.9 370.5 L 349.6 370.1 L 351.4 369.7 L 353.2 369.2 L 354.9 368.7 L 356.7 368.2 L 358.4 367.7 L 360.2 367.2 L 361.9 366.6 L 363.6 366.0 L 365.4 365.4 L 367.1 364.8 L 368.8 364.1 L 370.5 363.4 L 372.2 362.8 L 373.8 362.0 L 375.5 361.3 L 377.2 360.6 L 378.8 359.8 L 380.5 359.0 L 382.1 358.2 L 383.7 357.4 L 385.4 356.5 L 387.0 355.6 L 388.6 354.8 L 390.1 353.9 L 391.7 352.9 L 393.3 352.0 L 394.8 351.0 L 396.4 350.0 L 397.9 349.0 L 399.4 348.0 L 400.9 347.0 L 402.4 345.9 L 403.9 344.9 L 405.3 343.8 L 406.8 342.7 L 408.2 341.5 L 409.6 340.4 L 411.1 339.2 L 412.5 338.1 L 413.8 336.9 L 415.2 335.7 L 416.6 334.4 L 417.9 333.2 L 419.2 331.9 L 420.5 330.7 L 421.8 329.4 L 423.1 328.1 L 424.4 326.8 L 425.6 325.4 L 426.8 324.1 L 428.0 322.7 L 429.2 321.3 L 430.4 319.9 L 431.6 318.5 L 432.7 317.1 L 433.9 315.7 L 435.0 314.2 L 436.1 312.8 L 437.1 311.3 L 438.2 309.8 L 439.2 308.3 L 440.3 306.8 L 441.3 305.3 L 442.2 303.7 L 443.2 302.2 L 444.2 300.6 L 445.1 299.1 L 446.0 297.5 L 446.9 295.9 L 447.8 294.3 L 448.6 292.7 L 449.5 291.1 L 450.3 289.4 L 451.1 287.8 L 451.8 286.1 L 452.6 284.5 L 453.3 282.8 L 454.1 281.1 L 454.7 279.4 L 455.4 277.7 L 456.1 276.0 L 456.7 274.3 L 457.3 272.6 L 457.9 270.9 L 458.5 269.1 L 459.0 267.4 L 459.6 265.7 L 460.1 263.9 L 460.6 262.1 L 461.0 260.4 L 461.5 258.6 L 461.9 256.8 L 462.3 255.1 L 462.7 253.3 L 463.1 251.5 L 463.4 249.7 L 463.7 247.9 L 464.0 246.1 L 464.3 244.3 L 464.5 242.5 L 464.8 240.7 L 465.0 238.9 L 465.2 237.0 L 465.3 235.2 L 465.5 233.4 L 465.6 231.6 L 465.7 229.8 L 465.8 227.9 L 465.8 226.1 L 465.9 224.3 L 465.9 222.5 L 465.9 220.6 L 465.8 218.8 L 465.8 217.0 L 465.7 215.4" />
<circle cx="191.8" cy="374.0" r="4" fill="none" stroke="#ff5c5c" stroke-width="1.4" />
<circle cx="465.7" cy="215.4" r="4" fill="#ff5c5c" />
<path class="track" stroke="#ffd45c" d="M 182.4 389.0 L 184.3 389.0 L 186.1 389.0 L 187.9 389.0 L 189.8 389.0 L 191.6 389.0 L 193.5 389.0 L 195.3 389.0 L 197.2 389.0 L 199.1 389.0 L 201.0 389.0 L 202.8 389.0 L 204.7 389.0 L 206.6 389.0 L 208.5 389.0 L 210.4 389.0 L 212.3 389.0 L 214.1 389.0 L 216.0 389.0 L 217.9 389.0 L 219.8 389.0 L 221.7 389.0 L 223.5 389.0 L 225.4 389.0 L 227.3 389.0 L 229.2 389.0 L 231.1 389.0 L 232.9 389.0 L 234.8 389.0 L 236.7 389.0 L 238.6 389.0 L 240.5 389.0 L 242.3 389.0 L 244.2 389.0 L 246.1 389.0 L 248.0 389.0 L 249.9 389.0 L 251.7 389.0 L 253.6 389.0 L 255.5 389.0 L 257.4 389.0 L 259.3 389.0 L 261.1 389.0 L 263.0 389.0 L 264.9 389.0 L 266.8 389.0 L 268.7 389.0 L 270.5 389.0 L 272.4 389.0 L 274.3 389.0 L 276.2 389.0 L 278.1 389.0 L 279.9 389.0 L 281.8 389.0 L 283.7 389.0 L 285.6 389.0 L 287.5 389.0 L 289.3 389.0 L 291.2 389.0 L 293.1 389.0 L 295.0 389.0 L 296.9 389.1 L 298.8 389.2 L 300.8 389.4 L 302.9 389.6 L 304.9 389.8 L 306.9 389.9 L 308.9 390.1 L 311.0 390.1 L 313.0 390.2 L 315.0 390.2 L 317.1 390.2 L 319.1 390.2 L 321.1 390.1 L 323.1 390.0 L 325.1 389.9 L 327.1 389.7 L 329.1 389.5 L 331.1 389.3 L 333.1 389.1 L 335.1 388.9 L 337.1 388.6 L 339.1 388.3 L 341.1 388.0 L 343.1 387.6 L 345.1 387.3 L 347.1 386.9 L 349.0 386.5 L 351.0 386.0 L 353.0 385.6 L 354.9 385.1 L 356.9 384.6 L 358.8 384.1 L 360.7 383.5 L 362.7 383.0 L 364.6 382.4 L 366.5 381.7 L 368.4 381.1 L 370.3 380.4 L 372.2 379.7 L 374.1 379.0 L 376.0 378.3 L 377.8 377.5 L 379.7 376.7 L 381.5 375.9 L 383.4 375.1 L 385.2 374.3 L 387.0 373.4 L 388.8 372.5 L 390.6 371.6 L 392.4 370.7 L 394.2 369.7 L 396.0 368.7 L 397.7 367.7 L 399.5 366.7 L 401.2 365.7 L 402.9 364.6 L 404.6 363.6 L 406.3 362.5 L 408.0 361.3 L 409.6 360.2 L 411.3 359.0 L 412.9 357.9 L 414.5 356.7 L 416.1 355.4 L 417.7 354.2 L 419.3 352.9 L 420.8 351.7 L 422.4 350.4 L 423.9 349.1 L 425.4 347.7 L 426.9 346.4 L 428.4 345.0 L 429.9 343.6 L 431.3 342.2 L 432.8 340.8 L 434.2 339.4 L 435.6 337.9 L 436.9 336.5 L 438.3 335.0 L 439.6 333.5 L 441.0 331.9 L 442.3 330.4 L 443.6 328.9 L 444.8 327.3 L 446.1 325.7 L 447.3 324.1 L 448.5 322.5 L 449.7 320.9 L 450.9 319.3 L 452.0 317.6 L 453.2 315.9 L 454.3 314.3 L 455.4 312.6 L 456.5 310.9 L 457.5 309.1 L 458.5 307.4 L 459.5 305.7 L 460.5 303.9 L 461.5 302.1 L 462.5 300.4 L 463.4 298.6 L 464.3 296.8 L 465.2 295.0 L 466.0 293.1 L 466.9 291.3 L 467.7 289.5 L 468.5 287.6 L 469.2 285.8 L 470.0 283.9 L 470.7 282.0 L 471.4 280.1 L 472.1 278.2 L 472.8 276.3 L 473.4 274.4 L 474.0 272.5 L 474.6 270.6 L 475.2 268.6 L 475.7 266.7 L 476.2 264.7 L 476.7 262.8 L 477.2 260.8 L 477.7 258.9 L 478.1 256.9 L 478.5 254.9 L 478.9 253.0 L 479.2 251.0 L 479.6 249.0 L 479.9 247.0 L 480.2 245.0 L 480.4 243.0 L 480.6 241.0 L 480.9 239.0 L 481.0 237.0 L 481.2 235.0 L 481.4 233.0 L 481.5 231.0 L 481.6 228.9 L 481.6 226.9 L 481.7 224.9 L 481.7 223.1" />
<circle cx="182.4" cy="389.0" r="4" fill="none" stroke="#ffd45c" stroke-width="1.4" />
<circle cx="481.7" cy="223.1" r="4" fill="#ffd45c" />
<path class="track" stroke="#c45cff" d="M 182.4 369.0 L 184.3 369.0 L 186.1 369.0 L 187.9 369.0 L 189.8 369.0 L 191.6 369.0 L 193.5 369.0 L 195.3 369.0 L 197.2 369.0 L 199.1 369.0 L 201.0 369.0 L 202.8 369.0 L 204.7 369.0 L 206.6 369.0 L 208.5 369.0 L 210.4 369.0 L 212.3 369.0 L 214.1 369.0 L 216.0 369.0 L 217.9 369.0 L 219.8 369.0 L 221.7 369.0 L 223.5 369.0 L 225.4 369.0 L 227.3 369.0 L 229.2 369.0 L 231.1 369.0 L 232.9 369.0 L 234.8 369.0 L 236.7 369.0 L 238.6 369.0 L 240.5 369.0 L 242.3 369.0 L 244.2 369.0 L 246.1 369.0 L 248.0 369.0 L 249.9 369.0 L 251.7 369.0 L 253.6 369.0 L 255.5 369.0 L 257.4 369.0 L 259.3 369.0 L 261.1 369.0 L 263.0 369.0 L 264.9 369.0 L 266.8 369.0 L 268.7 369.0 L 270.5 369.0 L 272.4 369.0 L 274.3 369.0 L 276.2 369.0 L 278.1 369.0 L 279.9 369.0 L 281.8 369.0 L 283.7 369.0 L 285.6 369.0 L 287.5 369.0 L 289.3 369.0 L 291.2 369.0 L 293.1 369.0 L 295.0 369.0 L 296.8 369.0 L 298.6 369.2 L 300.4 369.4 L 302.2 369.5 L 303.9 369.7 L 305.6 369.9 L 307.4 370.1 L 309.1 370.2 L 310.9 370.3 L 312.7 370.3 L 314.4 370.3 L 316.2 370.3 L 318.0 370.3 L 319.8 370.2 L 321.5 370.1 L 323.3 370.0 L 325.1 369.9 L 326.9 369.7 L 328.6 369.6 L 330.4 369.4 L 332.2 369.2 L 333.9 368.9 L 335.7 368.7 L 337.4 368.4 L 339.2 368.1 L 340.9 367.8 L 342.7 367.5 L 344.4 367.1 L 346.1 366.7 L 347.9 366.3 L 349.6 365.9 L 351.3 365.5 L 353.0 365.0 L 354.7 364.5 L 356.4 364.0 L 358.1 363.5 L 359.8 363.0 L 361.5 362.4 L 363.2 361.8 L 364.9 361.2 L 366.5 360.6 L 368.2 359.9 L 369.8 359.3 L 371.5 358.6 L 373.1 357.9 L 374.7 357.2 L 376.3 356.4 L 377.9 355.7 L 379.5 354.9 L 381.1 354.1 L 382.7 353.3 L 384.3 352.4 L 385.8 351.6 L 387.4 350.7 L 388.9 349.8 L 390.4 348.9 L 391.9 348.0 L 393.4 347.0 L 394.9 346.1 L 396.4 345.1 L 397.9 344.1 L 399.3 343.1 L 400.8 342.0 L 402.2 341.0 L 403.6 339.9 L 405.0 338.8 L 406.4 337.7 L 407.8 336.6 L 409.2 335.5 L 410.5 334.3 L 411.8 333.1 L 413.2 332.0 L 414.5 330.8 L 415.8 329.5 L 417.1 328.3 L 418.3 327.1 L 419.6 325.8 L 420.8 324.5 L 422.0 323.2 L 423.2 321.9 L 424.4 320.6 L 425.6 319.3 L 426.7 317.9 L 427.9 316.6 L 429.0 315.2 L 430.1 313.8 L 431.2 312.4 L 432.3 311.0 L 433.3 309.6 L 434.4 308.1 L 435.4 306.7 L 436.4 305.2 L 437.4 303.7 L 438.3 302.2 L 439.3 300.7 L 440.2 299.2 L 441.1 297.7 L 442.0 296.2 L 442.9 294.6 L 443.8 293.1 L 444.6 291.5 L 445.4 289.9 L 446.2 288.3 L 447.0 286.8 L 447.8 285.1 L 448.5 283.5 L 449.2 281.9 L 449.9 280.3 L 450.6 278.6 L 451.3 277.0 L 451.9 275.3 L 452.6 273.7 L 453.2 272.0 L 453.8 270.3 L 454.3 268.7 L 454.9 267.0 L 455.4 265.3 L 455.9 263.6 L 456.4 261.9 L 456.8 260.1 L 457.3 258.4 L 457.7 256.7 L 458.1 255.0 L 458.5 253.2 L 458.9 251.5 L 459.2 249.8 L 459.5 248.0 L 459.8 246.3 L 460.1 244.5 L 460.3 242.8 L 460.6 241.0 L 460.8 239.2 L 461.0 237.5 L 461.2 235.7 L 461.3 233.9 L 461.4 232.2 L 461.5 230.4 L 461.6 228.6 L 461.7 226.8 L 461.7 225.2" />
<circle cx="182.4" cy="369.0" r="4" fill="none" stroke="#c45cff" stroke-width="1.4" />
<circle cx="461.7" cy="225.2" r="4" fill="#c45cff" />
</g>
<g transform="translate(60,680)">
<rect class="panel" width="560" height="560" />
<text class="title" x="10" y="18">FRONT Z x Y</text>
<text class="subtitle" x="10" y="32">Z -&gt; cross (horiz),  Y -&gt; alt (vert)</text>
<line class="grid" x1="60.0" y1="50.0" x2="60.0" y2="520.0" />
<line class="grid" x1="60.0" y1="520.0" x2="530.0" y2="520.0" />
<text class="tick" x="60.0" y="534.0" text-anchor="middle">-225</text>
<text class="tick" x="56.0" y="524.0" text-anchor="end">0</text>
<line class="grid" x1="154.0" y1="50.0" x2="154.0" y2="520.0" />
<line class="grid" x1="60.0" y1="426.0" x2="530.0" y2="426.0" />
<text class="tick" x="154.0" y="534.0" text-anchor="middle">-75</text>
<text class="tick" x="56.0" y="430.0" text-anchor="end">150</text>
<line class="grid" x1="248.0" y1="50.0" x2="248.0" y2="520.0" />
<line class="grid" x1="60.0" y1="332.0" x2="530.0" y2="332.0" />
<text class="tick" x="248.0" y="534.0" text-anchor="middle">75</text>
<text class="tick" x="56.0" y="336.0" text-anchor="end">300</text>
<line class="grid" x1="342.0" y1="50.0" x2="342.0" y2="520.0" />
<line class="grid" x1="60.0" y1="238.0" x2="530.0" y2="238.0" />
<text class="tick" x="342.0" y="534.0" text-anchor="middle">225</text>
<text class="tick" x="56.0" y="242.0" text-anchor="end">450</text>
<line class="grid" x1="436.0" y1="50.0" x2="436.0" y2="520.0" />
<line class="grid" x1="60.0" y1="144.0" x2="530.0" y2="144.0" />
<text class="tick" x="436.0" y="534.0" text-anchor="middle">375</text>
<text class="tick" x="56.0" y="148.0" text-anchor="end">600</text>
<line class="grid" x1="530.0" y1="50.0" x2="530.0" y2="520.0" />
<line class="grid" x1="60.0" y1="50.0" x2="530.0" y2="50.0" />
<text class="tick" x="530.0" y="534.0" text-anchor="middle">525</text>
<text class="tick" x="56.0" y="54.0" text-anchor="end">750</text>
<line class="axis" x1="60.0" y1="50.0" x2="60.0" y2="520.0" />
<line class="axis" x1="60.0" y1="520.0" x2="530.0" y2="520.0" />
<line class="ground" x1="60.0" y1="520.0" x2="530.0" y2="520.0" />
<path class="track" stroke="#5cff90" d="M 201.0 457.3 L 201.0 457.3 L 201.0 457.3 L 201.0 457.3 L 201.0 457.3 L 201.0 457.3 L 201.0 457.3 L 201.0 457.3 L 201.0 457.3 L 201.0 457.3 L 201.0 457.3 L 201.0 457.3 L 201.0 457.3 L 201.0 457.3 L 201.0 457.3 L 201.0 457.3 L 201.0 457.3 L 201.0 457.3 L 201.0 457.3 L 201.0 457.3 L 201.0 457.3 L 201.0 457.3 L 201.0 457.3 L 201.0 457.3 L 201.0 457.3 L 201.0 457.3 L 201.0 457.3 L 201.0 457.3 L 201.0 457.3 L 201.0 457.3 L 201.0 457.3 L 201.0 457.3 L 201.0 457.3 L 201.0 457.3 L 201.0 457.3 L 201.0 457.3 L 201.0 457.3 L 201.0 457.3 L 201.0 457.3 L 201.0 457.3 L 201.0 457.3 L 201.0 457.3 L 201.0 457.3 L 201.0 457.3 L 201.0 457.3 L 201.0 457.3 L 201.0 457.3 L 201.0 457.3 L 201.0 457.3 L 201.0 457.3 L 201.0 457.3 L 201.0 457.3 L 201.0 457.3 L 201.0 457.3 L 201.0 457.3 L 201.0 457.3 L 201.0 457.3 L 201.0 457.3 L 201.0 457.3 L 201.0 457.3 L 201.0 457.3 L 201.0 457.3 L 201.0 457.3 L 201.0 457.3 L 201.1 457.3 L 201.2 457.3 L 201.3 457.3 L 201.4 457.3 L 201.6 457.3 L 201.8 457.3 L 202.0 457.3 L 202.2 457.3 L 202.5 457.3 L 202.8 457.3 L 203.1 457.3 L 203.4 457.3 L 203.7 457.3 L 204.1 457.3 L 204.5 457.3 L 204.9 457.3 L 205.4 457.3 L 205.8 457.3 L 206.3 457.3 L 206.8 457.3 L 207.3 457.3 L 207.9 457.3 L 208.4 457.3 L 209.0 457.3 L 209.6 457.3 L 210.3 457.3 L 210.9 457.3 L 211.6 457.3 L 212.3 457.3 L 213.0 457.3 L 213.7 457.3 L 214.5 457.3 L 215.3 457.3 L 216.1 457.3 L 216.9 457.3 L 217.7 457.3 L 218.6 457.3 L 219.5 457.3 L 220.4 457.3 L 221.3 457.3 L 222.2 457.3 L 223.2 457.3 L 224.1 457.3 L 225.1 457.3 L 226.2 457.3 L 227.2 457.3 L 228.2 457.3 L 229.3 457.3 L 230.4 457.3 L 231.5 457.3 L 232.6 457.3 L 233.8 457.3 L 234.9 457.3 L 236.1 457.3 L 237.3 457.3 L 238.5 457.3 L 239.8 457.3 L 241.0 457.3 L 242.3 457.3 L 243.6 457.3 L 244.9 457.3 L 246.2 457.3 L 247.5 457.3 L 248.9 457.3 L 250.2 457.3 L 251.6 457.3 L 253.0 457.3 L 254.4 457.3 L 255.8 457.3 L 257.3 457.3 L 258.7 457.3 L 260.2 457.3 L 261.7 457.3 L 263.1 457.3 L 264.7 457.3 L 266.2 457.3 L 267.7 457.3 L 269.3 457.3 L 270.8 457.3 L 272.4 457.3 L 274.0 457.3 L 275.6 457.3 L 277.2 457.3 L 278.8 457.3 L 280.4 457.3 L 282.1 457.3 L 283.7 457.3 L 285.4 457.3 L 287.1 457.3 L 288.8 457.3 L 290.5 457.3 L 292.2 457.3 L 293.9 457.3 L 295.6 457.3 L 297.3 457.3 L 299.1 457.3 L 300.8 457.3 L 302.6 457.3 L 304.3 457.3 L 306.1 457.3 L 307.9 457.3 L 309.7 457.3 L 311.5 457.3 L 313.3 457.3 L 315.1 457.3 L 316.9 457.3 L 318.7 457.3 L 320.5 457.3 L 322.4 457.3 L 324.2 457.3 L 326.1 457.3 L 327.9 457.3 L 329.7 457.3 L 331.6 457.3 L 333.5 457.3 L 335.3 457.3 L 337.2 457.3 L 339.1 457.3 L 340.9 457.3 L 342.8 457.3 L 344.7 457.3 L 346.5 457.3 L 348.4 457.3 L 350.3 457.3 L 352.2 457.3 L 354.1 457.3 L 355.9 457.3 L 357.8 457.3 L 359.7 457.3 L 361.6 457.3 L 363.5 457.3 L 365.3 457.3 L 367.2 457.3 L 369.1 457.3 L 371.0 457.3 L 372.9 457.3 L 374.5 457.3" />
<circle cx="201.0" cy="457.3" r="4" fill="none" stroke="#5cff90" stroke-width="1.4" />
<circle cx="374.5" cy="457.3" r="4" fill="#5cff90" />
<path class="track" stroke="#5c9aff" d="M 196.0 457.3 L 196.0 457.3 L 196.0 457.3 L 196.0 457.3 L 196.0 457.3 L 196.0 457.3 L 196.0 457.3 L 196.0 457.3 L 196.0 457.3 L 196.0 457.3 L 196.0 457.3 L 196.0 457.3 L 196.0 457.3 L 196.0 457.3 L 196.0 457.3 L 196.0 457.3 L 196.0 457.3 L 196.0 457.3 L 196.0 457.3 L 196.0 457.3 L 196.0 457.3 L 196.0 457.3 L 196.0 457.3 L 196.0 457.3 L 196.0 457.3 L 196.0 457.3 L 196.0 457.3 L 196.0 457.3 L 196.0 457.3 L 196.0 457.3 L 196.0 457.3 L 196.0 457.3 L 196.0 457.3 L 196.0 457.3 L 196.0 457.3 L 196.0 457.3 L 196.0 457.3 L 196.0 457.3 L 196.0 457.3 L 196.0 457.3 L 196.0 457.3 L 196.0 457.3 L 196.0 457.3 L 196.0 457.3 L 196.0 457.3 L 196.0 457.3 L 196.0 457.3 L 196.0 457.3 L 196.0 457.3 L 196.0 457.3 L 196.0 457.3 L 196.0 457.3 L 196.0 457.3 L 196.0 457.3 L 196.0 457.3 L 196.0 457.3 L 196.0 457.3 L 196.0 457.3 L 196.0 457.3 L 196.0 457.3 L 196.0 457.3 L 196.0 457.3 L 195.9 457.3 L 195.8 457.3 L 195.8 457.3 L 195.7 457.3 L 195.7 457.3 L 195.7 457.3 L 195.7 457.3 L 195.8 457.3 L 195.9 457.3 L 196.0 457.3 L 196.2 457.3 L 196.3 457.3 L 196.5 457.3 L 196.8 457.3 L 197.0 457.3 L 197.3 457.3 L 197.6 457.3 L 197.9 457.3 L 198.2 457.3 L 198.6 457.3 L 199.0 457.3 L 199.4 457.3 L 199.8 457.3 L 200.3 457.3 L 200.8 457.3 L 201.3 457.3 L 201.8 457.3 L 202.3 457.3 L 202.9 457.3 L 203.5 457.3 L 204.1 457.3 L 204.7 457.3 L 205.4 457.3 L 206.1 457.3 L 206.8 457.3 L 207.5 457.3 L 208.2 457.3 L 209.0 457.3 L 209.8 457.3 L 210.6 457.3 L 211.4 457.3 L 212.3 457.3 L 213.1 457.3 L 214.0 457.3 L 214.9 457.3 L 215.9 457.3 L 216.8 457.3 L 217.8 457.3 L 218.8 457.3 L 219.8 457.3 L 220.8 457.3 L 221.9 457.3 L 223.0 457.3 L 224.0 457.3 L 225.2 457.3 L 226.3 457.3 L 227.4 457.3 L 228.6 457.3 L 229.8 457.3 L 231.0 457.3 L 232.2 457.3 L 233.5 457.3 L 234.7 457.3 L 236.0 457.3 L 237.3 457.3 L 238.6 457.3 L 239.9 457.3 L 241.3 457.3 L 242.6 457.3 L 244.0 457.3 L 245.4 457.3 L 246.8 457.3 L 248.2 457.3 L 249.7 457.3 L 251.1 457.3 L 252.6 457.3 L 254.1 457.3 L 255.6 457.3 L 257.1 457.3 L 258.7 457.3 L 260.2 457.3 L 261.8 457.3 L 263.3 457.3 L 264.9 457.3 L 266.5 457.3 L 268.1 457.3 L 269.8 457.3 L 271.4 457.3 L 273.1 457.3 L 274.7 457.3 L 276.4 457.3 L 278.1 457.3 L 279.8 457.3 L 281.5 457.3 L 283.2 457.3 L 285.0 457.3 L 286.7 457.3 L 288.5 457.3 L 290.2 457.3 L 292.0 457.3 L 293.8 457.3 L 295.6 457.3 L 297.4 457.3 L 299.2 457.3 L 301.0 457.3 L 302.8 457.3 L 304.7 457.3 L 306.5 457.3 L 308.4 457.3 L 310.2 457.3 L 312.1 457.3 L 313.9 457.3 L 315.8 457.3 L 317.7 457.3 L 319.6 457.3 L 321.5 457.3 L 323.4 457.3 L 325.3 457.3 L 327.2 457.3 L 329.1 457.3 L 331.0 457.3 L 332.9 457.3 L 334.9 457.3 L 336.8 457.3 L 338.7 457.3 L 340.7 457.3 L 342.6 457.3 L 344.5 457.3 L 346.5 457.3 L 348.4 457.3 L 350.4 457.3 L 352.3 457.3 L 354.2 457.3 L 356.2 457.3 L 358.1 457.3 L 360.1 457.3 L 362.0 457.3 L 364.0 457.3 L 365.7 457.3" />
<circle cx="196.0" cy="457.3" r="4" fill="none" stroke="#5c9aff" stroke-width="1.4" />
<circle cx="365.7" cy="457.3" r="4" fill="#5c9aff" />
<path class="track" stroke="#ff5c5c" d="M 206.0 457.3 L 206.0 457.3 L 206.0 457.3 L 206.0 457.3 L 206.0 457.3 L 206.0 457.3 L 206.0 457.3 L 206.0 457.3 L 206.0 457.3 L 206.0 457.3 L 206.0 457.3 L 206.0 457.3 L 206.0 457.3 L 206.0 457.3 L 206.0 457.3 L 206.0 457.3 L 206.0 457.3 L 206.0 457.3 L 206.0 457.3 L 206.0 457.3 L 206.0 457.3 L 206.0 457.3 L 206.0 457.3 L 206.0 457.3 L 206.0 457.3 L 206.0 457.3 L 206.0 457.3 L 206.0 457.3 L 206.0 457.3 L 206.0 457.3 L 206.0 457.3 L 206.0 457.3 L 206.0 457.3 L 206.0 457.3 L 206.0 457.3 L 206.0 457.3 L 206.0 457.3 L 206.0 457.3 L 206.0 457.3 L 206.0 457.3 L 206.0 457.3 L 206.0 457.3 L 206.0 457.3 L 206.0 457.3 L 206.0 457.3 L 206.0 457.3 L 206.0 457.3 L 206.0 457.3 L 206.0 457.3 L 206.0 457.3 L 206.0 457.3 L 206.0 457.3 L 206.0 457.3 L 206.0 457.3 L 206.0 457.3 L 206.0 457.3 L 206.0 457.3 L 206.0 457.3 L 206.0 457.3 L 206.0 457.3 L 206.0 457.3 L 206.0 457.3 L 205.9 457.3 L 205.8 457.3 L 205.8 457.3 L 205.7 457.3 L 205.7 457.3 L 205.7 457.3 L 205.7 457.3 L 205.8 457.3 L 205.8 457.3 L 206.0 457.3 L 206.1 457.3 L 206.3 457.3 L 206.4 457.3 L 206.6 457.3 L 206.9 457.3 L 207.1 457.3 L 207.4 457.3 L 207.7 457.3 L 208.0 457.3 L 208.3 457.3 L 208.7 457.3 L 209.1 457.3 L 209.5 457.3 L 209.9 457.3 L 210.3 457.3 L 210.8 457.3 L 211.3 457.3 L 211.8 457.3 L 212.3 457.3 L 212.8 457.3 L 213.4 457.3 L 214.0 457.3 L 214.6 457.3 L 215.2 457.3 L 215.9 457.3 L 216.6 457.3 L 217.2 457.3 L 218.0 457.3 L 218.7 457.3 L 219.4 457.3 L 220.2 457.3 L 221.0 457.3 L 221.8 457.3 L 222.6 457.3 L 223.5 457.3 L 224.4 457.3 L 225.2 457.3 L 226.1 457.3 L 227.1 457.3 L 228.0 457.3 L 229.0 457.3 L 230.0 457.3 L 231.0 457.3 L 232.0 457.3 L 233.0 457.3 L 234.1 457.3 L 235.1 457.3 L 236.2 457.3 L 237.3 457.3 L 238.5 457.3 L 239.6 457.3 L 240.8 457.3 L 241.9 457.3 L 243.1 457.3 L 244.3 457.3 L 245.6 457.3 L 246.8 457.3 L 248.1 457.3 L 249.3 457.3 L 250.6 457.3 L 251.9 457.3 L 253.2 457.3 L 254.6 457.3 L 255.9 457.3 L 257.3 457.3 L 258.7 457.3 L 260.1 457.3 L 261.5 457.3 L 262.9 457.3 L 264.3 457.3 L 265.8 457.3 L 267.2 457.3 L 268.7 457.3 L 270.2 457.3 L 271.7 457.3 L 273.2 457.3 L 274.7 457.3 L 276.3 457.3 L 277.8 457.3 L 279.4 457.3 L 280.9 457.3 L 282.5 457.3 L 284.1 457.3 L 285.7 457.3 L 287.3 457.3 L 288.9 457.3 L 290.6 457.3 L 292.2 457.3 L 293.9 457.3 L 295.5 457.3 L 297.2 457.3 L 298.9 457.3 L 300.6 457.3 L 302.3 457.3 L 304.0 457.3 L 305.7 457.3 L 307.4 457.3 L 309.1 457.3 L 310.9 457.3 L 312.6 457.3 L 314.3 457.3 L 316.1 457.3 L 317.9 457.3 L 319.6 457.3 L 321.4 457.3 L 323.2 457.3 L 324.9 457.3 L 326.7 457.3 L 328.5 457.3 L 330.3 457.3 L 332.1 457.3 L 333.9 457.3 L 335.7 457.3 L 337.5 457.3 L 339.3 457.3 L 341.1 457.3 L 343.0 457.3 L 344.8 457.3 L 346.6 457.3 L 348.4 457.3 L 350.2 457.3 L 352.1 457.3 L 353.9 457.3 L 355.7 457.3 L 357.5 457.3 L 359.4 457.3 L 361.2 457.3 L 363.0 457.3 L 364.6 457.3" />
<circle cx="206.0" cy="457.3" r="4" fill="none" stroke="#ff5c5c" stroke-width="1.4" />
<circle cx="364.6" cy="457.3" r="4" fill="#ff5c5c" />
<path class="track" stroke="#ffd45c" d="M 191.0 457.3 L 191.0 457.3 L 191.0 457.3 L 191.0 457.3 L 191.0 457.3 L 191.0 457.3 L 191.0 457.3 L 191.0 457.3 L 191.0 457.3 L 191.0 457.3 L 191.0 457.3 L 191.0 457.3 L 191.0 457.3 L 191.0 457.3 L 191.0 457.3 L 191.0 457.3 L 191.0 457.3 L 191.0 457.3 L 191.0 457.3 L 191.0 457.3 L 191.0 457.3 L 191.0 457.3 L 191.0 457.3 L 191.0 457.3 L 191.0 457.3 L 191.0 457.3 L 191.0 457.3 L 191.0 457.3 L 191.0 457.3 L 191.0 457.3 L 191.0 457.3 L 191.0 457.3 L 191.0 457.3 L 191.0 457.3 L 191.0 457.3 L 191.0 457.3 L 191.0 457.3 L 191.0 457.3 L 191.0 457.3 L 191.0 457.3 L 191.0 457.3 L 191.0 457.3 L 191.0 457.3 L 191.0 457.3 L 191.0 457.3 L 191.0 457.3 L 191.0 457.3 L 191.0 457.3 L 191.0 457.3 L 191.0 457.3 L 191.0 457.3 L 191.0 457.3 L 191.0 457.3 L 191.0 457.3 L 191.0 457.3 L 191.0 457.3 L 191.0 457.3 L 191.0 457.3 L 191.0 457.3 L 191.0 457.3 L 191.0 457.3 L 190.9 457.3 L 190.8 457.3 L 190.6 457.3 L 190.4 457.3 L 190.2 457.3 L 190.1 457.3 L 189.9 457.3 L 189.9 457.3 L 189.8 457.3 L 189.8 457.3 L 189.8 457.3 L 189.8 457.3 L 189.9 457.3 L 190.0 457.3 L 190.1 457.3 L 190.3 457.3 L 190.5 457.3 L 190.7 457.3 L 190.9 457.3 L 191.1 457.3 L 191.4 457.3 L 191.7 457.3 L 192.0 457.3 L 192.4 457.3 L 192.7 457.3 L 193.1 457.3 L 193.5 457.3 L 194.0 457.3 L 194.4 457.3 L 194.9 457.3 L 195.4 457.3 L 195.9 457.3 L 196.5 457.3 L 197.0 457.3 L 197.6 457.3 L 198.3 457.3 L 198.9 457.3 L 199.6 457.3 L 200.3 457.3 L 201.0 457.3 L 201.7 457.3 L 202.5 457.3 L 203.3 457.3 L 204.1 457.3 L 204.9 457.3 L 205.7 457.3 L 206.6 457.3 L 207.5 457.3 L 208.4 457.3 L 209.3 457.3 L 210.3 457.3 L 211.3 457.3 L 212.3 457.3 L 213.3 457.3 L 214.3 457.3 L 215.4 457.3 L 216.4 457.3 L 217.5 457.3 L 218.7 457.3 L 219.8 457.3 L 221.0 457.3 L 222.1 457.3 L 223.3 457.3 L 224.6 457.3 L 225.8 457.3 L 227.1 457.3 L 228.3 457.3 L 229.6 457.3 L 230.9 457.3 L 232.3 457.3 L 233.6 457.3 L 235.0 457.3 L 236.4 457.3 L 237.8 457.3 L 239.2 457.3 L 240.6 457.3 L 242.1 457.3 L 243.5 457.3 L 245.0 457.3 L 246.5 457.3 L 248.1 457.3 L 249.6 457.3 L 251.1 457.3 L 252.7 457.3 L 254.3 457.3 L 255.9 457.3 L 257.5 457.3 L 259.1 457.3 L 260.7 457.3 L 262.4 457.3 L 264.1 457.3 L 265.7 457.3 L 267.4 457.3 L 269.1 457.3 L 270.9 457.3 L 272.6 457.3 L 274.3 457.3 L 276.1 457.3 L 277.9 457.3 L 279.6 457.3 L 281.4 457.3 L 283.2 457.3 L 285.0 457.3 L 286.9 457.3 L 288.7 457.3 L 290.5 457.3 L 292.4 457.3 L 294.2 457.3 L 296.1 457.3 L 298.0 457.3 L 299.9 457.3 L 301.8 457.3 L 303.7 457.3 L 305.6 457.3 L 307.5 457.3 L 309.4 457.3 L 311.4 457.3 L 313.3 457.3 L 315.3 457.3 L 317.2 457.3 L 319.2 457.3 L 321.1 457.3 L 323.1 457.3 L 325.1 457.3 L 327.0 457.3 L 329.0 457.3 L 331.0 457.3 L 333.0 457.3 L 335.0 457.3 L 337.0 457.3 L 339.0 457.3 L 341.0 457.3 L 343.0 457.3 L 345.0 457.3 L 347.0 457.3 L 349.0 457.3 L 351.1 457.3 L 353.1 457.3 L 355.1 457.3 L 356.9 457.3" />
<circle cx="191.0" cy="457.3" r="4" fill="none" stroke="#ffd45c" stroke-width="1.4" />
<circle cx="356.9" cy="457.3" r="4" fill="#ffd45c" />
<path class="track" stroke="#c45cff" d="M 211.0 457.3 L 211.0 457.3 L 211.0 457.3 L 211.0 457.3 L 211.0 457.3 L 211.0 457.3 L 211.0 457.3 L 211.0 457.3 L 211.0 457.3 L 211.0 457.3 L 211.0 457.3 L 211.0 457.3 L 211.0 457.3 L 211.0 457.3 L 211.0 457.3 L 211.0 457.3 L 211.0 457.3 L 211.0 457.3 L 211.0 457.3 L 211.0 457.3 L 211.0 457.3 L 211.0 457.3 L 211.0 457.3 L 211.0 457.3 L 211.0 457.3 L 211.0 457.3 L 211.0 457.3 L 211.0 457.3 L 211.0 457.3 L 211.0 457.3 L 211.0 457.3 L 211.0 457.3 L 211.0 457.3 L 211.0 457.3 L 211.0 457.3 L 211.0 457.3 L 211.0 457.3 L 211.0 457.3 L 211.0 457.3 L 211.0 457.3 L 211.0 457.3 L 211.0 457.3 L 211.0 457.3 L 211.0 457.3 L 211.0 457.3 L 211.0 457.3 L 211.0 457.3 L 211.0 457.3 L 211.0 457.3 L 211.0 457.3 L 211.0 457.3 L 211.0 457.3 L 211.0 457.3 L 211.0 457.3 L 211.0 457.3 L 211.0 457.3 L 211.0 457.3 L 211.0 457.3 L 211.0 457.3 L 211.0 457.3 L 211.0 457.3 L 211.0 457.3 L 210.8 457.3 L 210.6 457.3 L 210.5 457.3 L 210.3 457.3 L 210.1 457.3 L 209.9 457.3 L 209.8 457.3 L 209.7 457.3 L 209.7 457.3 L 209.7 457.3 L 209.7 457.3 L 209.7 457.3 L 209.8 457.3 L 209.9 457.3 L 210.0 457.3 L 210.1 457.3 L 210.3 457.3 L 210.4 457.3 L 210.6 457.3 L 210.8 457.3 L 211.1 457.3 L 211.3 457.3 L 211.6 457.3 L 211.9 457.3 L 212.2 457.3 L 212.5 457.3 L 212.9 457.3 L 213.3 457.3 L 213.7 457.3 L 214.1 457.3 L 214.5 457.3 L 215.0 457.3 L 215.5 457.3 L 216.0 457.3 L 216.5 457.3 L 217.0 457.3 L 217.6 457.3 L 218.2 457.3 L 218.8 457.3 L 219.4 457.3 L 220.1 457.3 L 220.7 457.3 L 221.4 457.3 L 222.1 457.3 L 222.8 457.3 L 223.6 457.3 L 224.3 457.3 L 225.1 457.3 L 225.9 457.3 L 226.7 457.3 L 227.6 457.3 L 228.4 457.3 L 229.3 457.3 L 230.2 457.3 L 231.1 457.3 L 232.0 457.3 L 233.0 457.3 L 233.9 457.3 L 234.9 457.3 L 235.9 457.3 L 236.9 457.3 L 238.0 457.3 L 239.0 457.3 L 240.1 457.3 L 241.2 457.3 L 242.3 457.3 L 243.4 457.3 L 244.5 457.3 L 245.7 457.3 L 246.9 457.3 L 248.0 457.3 L 249.2 457.3 L 250.5 457.3 L 251.7 457.3 L 252.9 457.3 L 254.2 457.3 L 255.5 457.3 L 256.8 457.3 L 258.1 457.3 L 259.4 457.3 L 260.7 457.3 L 262.1 457.3 L 263.4 457.3 L 264.8 457.3 L 266.2 457.3 L 267.6 457.3 L 269.0 457.3 L 270.4 457.3 L 271.9 457.3 L 273.3 457.3 L 274.8 457.3 L 276.3 457.3 L 277.8 457.3 L 279.3 457.3 L 280.8 457.3 L 282.3 457.3 L 283.8 457.3 L 285.4 457.3 L 286.9 457.3 L 288.5 457.3 L 290.1 457.3 L 291.7 457.3 L 293.2 457.3 L 294.9 457.3 L 296.5 457.3 L 298.1 457.3 L 299.7 457.3 L 301.4 457.3 L 303.0 457.3 L 304.7 457.3 L 306.3 457.3 L 308.0 457.3 L 309.7 457.3 L 311.3 457.3 L 313.0 457.3 L 314.7 457.3 L 316.4 457.3 L 318.1 457.3 L 319.9 457.3 L 321.6 457.3 L 323.3 457.3 L 325.0 457.3 L 326.8 457.3 L 328.5 457.3 L 330.2 457.3 L 332.0 457.3 L 333.7 457.3 L 335.5 457.3 L 337.2 457.3 L 339.0 457.3 L 340.8 457.3 L 342.5 457.3 L 344.3 457.3 L 346.1 457.3 L 347.8 457.3 L 349.6 457.3 L 351.4 457.3 L 353.2 457.3 L 354.8 457.3" />
<circle cx="211.0" cy="457.3" r="4" fill="none" stroke="#c45cff" stroke-width="1.4" />
<circle cx="354.8" cy="457.3" r="4" fill="#c45cff" />
</g>
<g transform="translate(680,680)">
<rect class="panel" width="560" height="560" />
<text class="title" x="20" y="38">5 drones (2 kg, quad-drag) in V formation @ 15 m/s, banking right at t=12 s</text>
<text class="summary" x="20" y="70">tracks        : 5</text>
<text class="summary" x="20" y="92">total samples : 1005</text>
<text class="summary" x="20" y="114">duration      : 40.00 s</text>
<text class="summary" x="20" y="136"></text>
<text class="summary-dim" x="20" y="158">legend:</text>
<line x1="30" y1="180.0" x2="60" y2="180.0" stroke="#5cff90" stroke-width="2.2" />
<circle cx="45" cy="180.0" r="3.5" fill="#5cff90" />
<text class="summary-dim" x="70" y="184.0">Lead       end (429, 100, 277) m  (201 samples)</text>
<line x1="30" y1="202.0" x2="60" y2="202.0" stroke="#5c9aff" stroke-width="2.2" />
<circle cx="45" cy="202.0" r="3.5" fill="#5c9aff" />
<text class="summary-dim" x="70" y="206.0">Wing-L     end (438, 100, 263) m  (201 samples)</text>
<line x1="30" y1="224.0" x2="60" y2="224.0" stroke="#ff5c5c" stroke-width="2.2" />
<circle cx="45" cy="224.0" r="3.5" fill="#ff5c5c" />
<text class="summary-dim" x="70" y="228.0">Wing-R     end (422, 100, 261) m  (201 samples)</text>
<line x1="30" y1="246.0" x2="60" y2="246.0" stroke="#ffd45c" stroke-width="2.2" />
<circle cx="45" cy="246.0" r="3.5" fill="#ffd45c" />
<text class="summary-dim" x="70" y="250.0">Tail-L     end (448, 100, 249) m  (201 samples)</text>
<line x1="30" y1="268.0" x2="60" y2="268.0" stroke="#c45cff" stroke-width="2.2" />
<circle cx="45" cy="268.0" r="3.5" fill="#c45cff" />
<text class="summary-dim" x="70" y="272.0">Tail-R     end (416, 100, 245) m  (201 samples)</text>
</g>
</svg>
