<?xml version="1.0" encoding="UTF-8"?>
<svg xmlns="http://www.w3.org/2000/svg" viewBox="0 0 1300 1300" width="1300" height="1300">
<style>
  .bg { fill: #0c1116; }
.panel { fill: #11161c; stroke: #2a3340; stroke-width: 1; }
.grid { stroke: #1c2430; stroke-width: 1; }
.axis { stroke: #4a5260; stroke-width: 1; }
.ground { stroke: #6b5a26; stroke-width: 1.5; stroke-dasharray: 4 3; }
.tick { fill: #7a8290; font: 11px monospace; }
.title { fill: #d6deea; font: 14px monospace; font-weight: bold; }
.subtitle { fill: #7a8290; font: 11px monospace; }
.boost { stroke: #ff5c5c; stroke-width: 2.2; fill: none; }
.coast { stroke: #5cff90; stroke-width: 2.2; fill: none; }
.impact { fill: #ffa040; stroke: #ffa040; }
.summary { fill: #d6deea; font: 13px monospace; }
.summary-dim { fill: #7a8290; font: 12px monospace; }
</style>
<rect class="bg" width="1300" height="1300" />
<g transform="translate(60,60)">
<rect class="panel" width="560" height="560" />
<text class="title" x="10" y="18">SIDE  X x Y</text>
<text class="subtitle" x="10" y="32">X -&gt; range (horiz),  Y -&gt; alt (vert)</text>
<line class="grid" x1="60.0" y1="50.0" x2="60.0" y2="520.0" />
<line class="grid" x1="60.0" y1="520.0" x2="530.0" y2="520.0" />
<text class="tick" x="60.0" y="534.0" text-anchor="middle">-117</text>
<text class="tick" x="56.0" y="524.0" text-anchor="end">0</text>
<line class="grid" x1="154.0" y1="50.0" x2="154.0" y2="520.0" />
<line class="grid" x1="60.0" y1="426.0" x2="530.0" y2="426.0" />
<text class="tick" x="154.0" y="534.0" text-anchor="middle">413</text>
<text class="tick" x="56.0" y="430.0" text-anchor="end">530</text>
<line class="grid" x1="248.0" y1="50.0" x2="248.0" y2="520.0" />
<line class="grid" x1="60.0" y1="332.0" x2="530.0" y2="332.0" />
<text class="tick" x="248.0" y="534.0" text-anchor="middle">944</text>
<text class="tick" x="56.0" y="336.0" text-anchor="end">1.1k</text>
<line class="grid" x1="342.0" y1="50.0" x2="342.0" y2="520.0" />
<line class="grid" x1="60.0" y1="238.0" x2="530.0" y2="238.0" />
<text class="tick" x="342.0" y="534.0" text-anchor="middle">1.5k</text>
<text class="tick" x="56.0" y="242.0" text-anchor="end">1.6k</text>
<line class="grid" x1="436.0" y1="50.0" x2="436.0" y2="520.0" />
<line class="grid" x1="60.0" y1="144.0" x2="530.0" y2="144.0" />
<text class="tick" x="436.0" y="534.0" text-anchor="middle">2.0k</text>
<text class="tick" x="56.0" y="148.0" text-anchor="end">2.1k</text>
<line class="grid" x1="530.0" y1="50.0" x2="530.0" y2="520.0" />
<line class="grid" x1="60.0" y1="50.0" x2="530.0" y2="50.0" />
<text class="tick" x="530.0" y="534.0" text-anchor="middle">2.5k</text>
<text class="tick" x="56.0" y="54.0" text-anchor="end">2.7k</text>
<line class="axis" x1="60.0" y1="50.0" x2="60.0" y2="520.0" />
<line class="axis" x1="60.0" y1="520.0" x2="530.0" y2="520.0" />
<line class="ground" x1="60.0" y1="520.0" x2="530.0" y2="520.0" />
<path class="boost" d="M 81.4 519.4 L 84.3 516.3 L 87.2 513.2 L 90.0 510.3 L 92.8 507.3 L 95.6 504.5 L 98.3 501.6 L 101.0 498.9 L 103.6 496.1 L 106.2 493.4 L 108.7 490.8 L 111.2 488.2 L 113.7 485.6 L 116.2 483.1 L 118.6 480.6 L 121.0 478.1 L 123.4 475.7 L 125.7 473.3 L 128.0 470.9 L 130.3 468.5 L 132.6 466.2 L 134.8 464.0 L 137.0 461.7 L 139.2 459.5 L 141.4 457.3 L 143.6 455.1 L 145.7 452.9 L 147.8 450.8 L 149.9 448.7 L 152.0 446.6 L 154.1 444.5 L 156.1 442.5 L 158.1 440.4 L 160.1 438.4 L 162.1 436.4 L 164.1 434.5 L 166.1 432.5 L 168.0 430.6 L 170.0 428.7 L 171.9 426.8 L 173.8 424.9 L 175.7 423.0 L 177.6 421.1 L 179.5 419.3 L 181.4 417.5 L 183.2 415.7 L 185.1 413.9 L 186.9 412.1 L 188.7 410.3 L 190.5 408.5 L 192.3 406.8 L 194.1 405.1 L 195.9 403.3 L 197.7 401.6 L 199.5 399.9 L 201.2 398.2 L 203.0 396.5 L 204.7 394.9 L 206.5 393.2 L 208.2 391.6 L 209.9 389.9" />
<path class="coast" d="M 209.9 389.9 L 211.6 388.3 L 213.3 386.7 L 215.0 385.1 L 216.6 383.6 L 218.3 382.0 L 219.9 380.5 L 221.5 379.1 L 223.0 377.6 L 224.6 376.1 L 226.1 374.7 L 227.6 373.3 L 229.1 371.9 L 230.6 370.6 L 232.1 369.2 L 233.5 367.9 L 235.0 366.6 L 236.4 365.3 L 237.8 364.0 L 239.2 362.8 L 240.6 361.6 L 242.0 360.3 L 243.3 359.1 L 244.7 357.9 L 246.0 356.8 L 247.3 355.6 L 248.6 354.5 L 249.9 353.3 L 251.2 352.2 L 252.5 351.1 L 253.7 350.0 L 255.0 349.0 L 256.2 347.9 L 257.4 346.9 L 258.7 345.8 L 259.9 344.8 L 261.1 343.8 L 262.2 342.8 L 263.4 341.8 L 264.6 340.9 L 265.7 339.9 L 266.9 339.0 L 268.0 338.0 L 269.2 337.1 L 270.3 336.2 L 271.4 335.3 L 272.5 334.4 L 273.6 333.5 L 274.7 332.7 L 275.8 331.8 L 276.8 331.0 L 277.9 330.1 L 278.9 329.3 L 280.0 328.5 L 281.0 327.7 L 282.1 326.9 L 283.1 326.1 L 284.1 325.4 L 285.1 324.6 L 286.1 323.8 L 287.1 323.1 L 288.1 322.4 L 289.1 321.6 L 290.1 320.9 L 291.1 320.2 L 292.0 319.5 L 293.0 318.8 L 294.0 318.1 L 294.9 317.5 L 295.8 316.8 L 296.8 316.1 L 297.7 315.5 L 298.6 314.8 L 299.6 314.2 L 300.5 313.6 L 301.4 313.0 L 302.3 312.4 L 303.2 311.8 L 304.1 311.2 L 305.0 310.6 L 305.9 310.0 L 306.7 309.4 L 307.6 308.9 L 308.5 308.3 L 309.3 307.8 L 310.2 307.2 L 311.1 306.7 L 311.9 306.2 L 312.8 305.7 L 313.6 305.2 L 314.4 304.7 L 315.3 304.2 L 316.1 303.7 L 316.9 303.2 L 317.7 302.7 L 318.5 302.2 L 319.4 301.8 L 320.2 301.3 L 321.0 300.9 L 321.8 300.4 L 322.6 300.0 L 323.4 299.6 L 324.1 299.1 L 324.9 298.7 L 325.7 298.3 L 326.5 297.9 L 327.3 297.5 L 328.0 297.1 L 328.8 296.7 L 329.6 296.3 L 330.3 296.0 L 331.1 295.6 L 331.8 295.2 L 332.6 294.9 L 333.3 294.5 L 334.1 294.2 L 334.8 293.9 L 335.5 293.5 L 336.3 293.2 L 337.0 292.9 L 337.7 292.6 L 338.4 292.2 L 339.2 291.9 L 339.9 291.6 L 340.6 291.4 L 341.3 291.1 L 342.0 290.8 L 342.7 290.5 L 343.4 290.2 L 344.1 290.0 L 344.8 289.7 L 345.5 289.5 L 346.2 289.2 L 346.9 289.0 L 347.6 288.7 L 348.2 288.5 L 348.9 288.3 L 349.6 288.0 L 350.3 287.8 L 351.0 287.6 L 351.6 287.4 L 352.3 287.2 L 353.0 287.0 L 353.6 286.8 L 354.3 286.6 L 354.9 286.4 L 355.6 286.3 L 356.2 286.1 L 356.9 285.9 L 357.5 285.8 L 358.2 285.6 L 358.8 285.5 L 359.5 285.3 L 360.1 285.2 L 360.7 285.0 L 361.4 284.9 L 362.0 284.8 L 362.6 284.7 L 363.3 284.5 L 363.9 284.4 L 364.5 284.3 L 365.1 284.2 L 365.8 284.1 L 366.4 284.0 L 367.0 283.9 L 367.6 283.8 L 368.2 283.8 L 368.8 283.7 L 369.4 283.6 L 370.0 283.5 L 370.6 283.5 L 371.2 283.4 L 371.8 283.4 L 372.4 283.3 L 373.0 283.3 L 373.6 283.2 L 374.2 283.2 L 374.8 283.2 L 375.4 283.1 L 376.0 283.1 L 376.5 283.1 L 377.1 283.1 L 377.7 283.1 L 378.3 283.1 L 378.9 283.1 L 379.4 283.1 L 380.0 283.1 L 380.6 283.1 L 381.1 283.1 L 381.7 283.1 L 382.3 283.2 L 382.8 283.2 L 383.4 283.2 L 384.0 283.3 L 384.5 283.3 L 385.1 283.4 L 385.6 283.4 L 386.2 283.5 L 386.7 283.5 L 387.3 283.6 L 387.8 283.7 L 388.4 283.7 L 388.9 283.8 L 389.5 283.9 L 390.0 284.0 L 390.5 284.1 L 391.1 284.1 L 391.6 284.2 L 392.2 284.3 L 392.7 284.5 L 393.2 284.6 L 393.8 284.7 L 394.3 284.8 L 394.8 284.9 L 395.3 285.0 L 395.9 285.2 L 396.4 285.3 L 396.9 285.4 L 397.4 285.6 L 397.9 285.7 L 398.5 285.9 L 399.0 286.0 L 399.5 286.2 L 400.0 286.3 L 400.5 286.5 L 401.0 286.7 L 401.5 286.8 L 402.0 287.0 L 402.5 287.2 L 403.0 287.4 L 403.5 287.6 L 404.0 287.8 L 404.5 287.9 L 405.0 288.1 L 405.5 288.3 L 406.0 288.6 L 406.5 288.8 L 407.0 289.0 L 407.5 289.2 L 408.0 289.4 L 408.5 289.6 L 409.0 289.9 L 409.4 290.1 L 409.9 290.3 L 410.4 290.6 L 410.9 290.8 L 411.4 291.1 L 411.9 291.3 L 412.3 291.6 L 412.8 291.8 L 413.3 292.1 L 413.7 292.3 L 414.2 292.6 L 414.7 292.9 L 415.2 293.2 L 415.6 293.4 L 416.1 293.7 L 416.6 294.0 L 417.0 294.3 L 417.5 294.6 L 417.9 294.9 L 418.4 295.2 L 418.9 295.5 L 419.3 295.8 L 419.8 296.1 L 420.2 296.4 L 420.7 296.7 L 421.1 297.1 L 421.6 297.4 L 422.0 297.7 L 422.5 298.0 L 422.9 298.4 L 423.3 298.7 L 423.8 299.0 L 424.2 299.4 L 424.7 299.7 L 425.1 300.1 L 425.5 300.4 L 426.0 300.8 L 426.4 301.2 L 426.9 301.5 L 427.3 301.9 L 427.7 302.3 L 428.1 302.6 L 428.6 303.0 L 429.0 303.4 L 429.4 303.8 L 429.8 304.2 L 430.3 304.5 L 430.7 304.9 L 431.1 305.3 L 431.5 305.7 L 432.0 306.1 L 432.4 306.5 L 432.8 306.9 L 433.2 307.4 L 433.6 307.8 L 434.0 308.2 L 434.4 308.6 L 434.8 309.0 L 435.2 309.4 L 435.7 309.9 L 436.1 310.3 L 436.5 310.7 L 436.9 311.2 L 437.3 311.6 L 437.7 312.1 L 438.1 312.5 L 438.5 313.0 L 438.9 313.4 L 439.3 313.9 L 439.6 314.3 L 440.0 314.8 L 440.4 315.3 L 440.8 315.7 L 441.2 316.2 L 441.6 316.7 L 442.0 317.1 L 442.4 317.6 L 442.7 318.1 L 443.1 318.6 L 443.5 319.1 L 443.9 319.6 L 444.3 320.1 L 444.6 320.5 L 445.0 321.0 L 445.4 321.5 L 445.8 322.0 L 446.1 322.6 L 446.5 323.1 L 446.9 323.6 L 447.3 324.1 L 447.6 324.6 L 448.0 325.1 L 448.3 325.6 L 448.7 326.2 L 449.1 326.7 L 449.4 327.2 L 449.8 327.8 L 450.2 328.3 L 450.5 328.8 L 450.9 329.4 L 451.2 329.9 L 451.6 330.4 L 451.9 331.0 L 452.3 331.5 L 452.6 332.1 L 453.0 332.7 L 453.3 333.2 L 453.7 333.8 L 454.0 334.3 L 454.4 334.9 L 454.7 335.5 L 455.1 336.0 L 455.4 336.6 L 455.7 337.2 L 456.1 337.7 L 456.4 338.3 L 456.7 338.9 L 457.1 339.5 L 457.4 340.1 L 457.7 340.7 L 458.1 341.2 L 458.4 341.8 L 458.7 342.4 L 459.1 343.0 L 459.4 343.6 L 459.7 344.2 L 460.0 344.8 L 460.4 345.4 L 460.7 346.0 L 461.0 346.7 L 461.3 347.3 L 461.6 347.9 L 462.0 348.5 L 462.3 349.1 L 462.6 349.7 L 462.9 350.3 L 463.2 351.0 L 463.5 351.6 L 463.8 352.2 L 464.1 352.9 L 464.5 353.5 L 464.8 354.1 L 465.1 354.8 L 465.4 355.4 L 465.7 356.0 L 466.0 356.7 L 466.3 357.3 L 466.6 358.0 L 466.9 358.6 L 467.2 359.3 L 467.5 359.9 L 467.8 360.6 L 468.1 361.2 L 468.4 361.9 L 468.7 362.5 L 468.9 363.2 L 469.2 363.9 L 469.5 364.5 L 469.8 365.2 L 470.1 365.9 L 470.4 366.5 L 470.7 367.2 L 471.0 367.9 L 471.2 368.6 L 471.5 369.2 L 471.8 369.9 L 472.1 370.6 L 472.4 371.3 L 472.6 372.0 L 472.9 372.6 L 473.2 373.3 L 473.5 374.0 L 473.7 374.7 L 474.0 375.4 L 474.3 376.1 L 474.5 376.8 L 474.8 377.5 L 475.1 378.2 L 475.3 378.9 L 475.6 379.6 L 475.9 380.3 L 476.1 381.0 L 476.4 381.7 L 476.7 382.4 L 476.9 383.1 L 477.2 383.8 L 477.4 384.6 L 477.7 385.3 L 478.0 386.0 L 478.2 386.7 L 478.5 387.4 L 478.7 388.1 L 479.0 388.9 L 479.2 389.6 L 479.5 390.3 L 479.7 391.0 L 480.0 391.8 L 480.2 392.5 L 480.5 393.2 L 480.7 394.0 L 481.0 394.7 L 481.2 395.4 L 481.4 396.2 L 481.7 396.9 L 481.9 397.6 L 482.2 398.4 L 482.4 399.1 L 482.6 399.9 L 482.9 400.6 L 483.1 401.4 L 483.3 402.1 L 483.6 402.9 L 483.8 403.6 L 484.0 404.4 L 484.3 405.1 L 484.5 405.9 L 484.7 406.6 L 485.0 407.4 L 485.2 408.1 L 485.4 408.9 L 485.6 409.6 L 485.9 410.4 L 486.1 411.2 L 486.3 411.9 L 486.5 412.7 L 486.8 413.5 L 487.0 414.2 L 487.2 415.0 L 487.4 415.8 L 487.6 416.5 L 487.8 417.3 L 488.1 418.1 L 488.3 418.9 L 488.5 419.6 L 488.7 420.4 L 488.9 421.2 L 489.1 422.0 L 489.3 422.7 L 489.5 423.5 L 489.7 424.3 L 490.0 425.1 L 490.2 425.9 L 490.4 426.7 L 490.6 427.4 L 490.8 428.2 L 491.0 429.0 L 491.2 429.8 L 491.4 430.6 L 491.6 431.4 L 491.8 432.2 L 492.0 433.0 L 492.2 433.8 L 492.4 434.6 L 492.6 435.3 L 492.8 436.1 L 493.0 436.9 L 493.2 437.7 L 493.3 438.5 L 493.5 439.3 L 493.7 440.1 L 493.9 440.9 L 494.1 441.7 L 494.3 442.5 L 494.5 443.4 L 494.7 444.2 L 494.9 445.0 L 495.0 445.8 L 495.2 446.6 L 495.4 447.4 L 495.6 448.2 L 495.8 449.0 L 496.0 449.8 L 496.1 450.6 L 496.3 451.4 L 496.5 452.3 L 496.7 453.1 L 496.9 453.9 L 497.0 454.7 L 497.2 455.5 L 497.4 456.3 L 497.6 457.2 L 497.7 458.0 L 497.9 458.8 L 498.1 459.6 L 498.3 460.4 L 498.4 461.3 L 498.6 462.1 L 498.8 462.9 L 498.9 463.7 L 499.1 464.6 L 499.3 465.4 L 499.4 466.2 L 499.6 467.0 L 499.8 467.9 L 499.9 468.7 L 500.1 469.5 L 500.3 470.4 L 500.4 471.2 L 500.6 472.0 L 500.7 472.9 L 500.9 473.7 L 501.1 474.5 L 501.2 475.4 L 501.4 476.2 L 501.5 477.0 L 501.7 477.9 L 501.8 478.7 L 502.0 479.5 L 502.2 480.4 L 502.3 481.2 L 502.5 482.1 L 502.6 482.9 L 502.8 483.7 L 502.9 484.6 L 503.1 485.4 L 503.2 486.3 L 503.4 487.1 L 503.5 488.0 L 503.7 488.8 L 503.8 489.6 L 504.0 490.5 L 504.1 491.3 L 504.2 492.2 L 504.4 493.0 L 504.5 493.9 L 504.7 494.7 L 504.8 495.6 L 505.0 496.4 L 505.1 497.3 L 505.2 498.1 L 505.4 499.0 L 505.5 499.8 L 505.7 500.7 L 505.8 501.5 L 505.9 502.4 L 506.1 503.2 L 506.2 504.1 L 506.3 505.0 L 506.5 505.8 L 506.6 506.7 L 506.7 507.5 L 506.9 508.4 L 507.0 509.2 L 507.1 510.1 L 507.3 511.0 L 507.4 511.8 L 507.5 512.7 L 507.7 513.5 L 507.8 514.4 L 507.9 515.3 L 508.1 516.1 L 508.2 517.0 L 508.3 517.8 L 508.4 518.7 L 508.6 519.6 L 508.6 520.0" />
<circle class="impact" cx="508.6" cy="520.0" r="5" />
</g>
<g transform="translate(680,60)">
<rect class="panel" width="560" height="560" />
<text class="title" x="10" y="18">TOP   X x Z</text>
<text class="subtitle" x="10" y="32">X -&gt; range (horiz),  Z -&gt; cross (vert)</text>
<line class="grid" x1="60.0" y1="50.0" x2="60.0" y2="520.0" />
<line class="grid" x1="60.0" y1="520.0" x2="530.0" y2="520.0" />
<text class="tick" x="60.0" y="534.0" text-anchor="middle">-117</text>
<text class="tick" x="56.0" y="524.0" text-anchor="end">-932</text>
<line class="grid" x1="154.0" y1="50.0" x2="154.0" y2="520.0" />
<line class="grid" x1="60.0" y1="426.0" x2="530.0" y2="426.0" />
<text class="tick" x="154.0" y="534.0" text-anchor="middle">413</text>
<text class="tick" x="56.0" y="430.0" text-anchor="end">-401</text>
<line class="grid" x1="248.0" y1="50.0" x2="248.0" y2="520.0" />
<line class="grid" x1="60.0" y1="332.0" x2="530.0" y2="332.0" />
<text class="tick" x="248.0" y="534.0" text-anchor="middle">944</text>
<text class="tick" x="56.0" y="336.0" text-anchor="end">129</text>
<line class="grid" x1="342.0" y1="50.0" x2="342.0" y2="520.0" />
<line class="grid" x1="60.0" y1="238.0" x2="530.0" y2="238.0" />
<text class="tick" x="342.0" y="534.0" text-anchor="middle">1.5k</text>
<text class="tick" x="56.0" y="242.0" text-anchor="end">660</text>
<line class="grid" x1="436.0" y1="50.0" x2="436.0" y2="520.0" />
<line class="grid" x1="60.0" y1="144.0" x2="530.0" y2="144.0" />
<text class="tick" x="436.0" y="534.0" text-anchor="middle">2.0k</text>
<text class="tick" x="56.0" y="148.0" text-anchor="end">1.2k</text>
<line class="grid" x1="530.0" y1="50.0" x2="530.0" y2="520.0" />
<line class="grid" x1="60.0" y1="50.0" x2="530.0" y2="50.0" />
<text class="tick" x="530.0" y="534.0" text-anchor="middle">2.5k</text>
<text class="tick" x="56.0" y="54.0" text-anchor="end">1.7k</text>
<line class="axis" x1="60.0" y1="50.0" x2="60.0" y2="520.0" />
<line class="axis" x1="60.0" y1="520.0" x2="530.0" y2="520.0" />
<path class="boost" d="M 81.4 354.7 L 84.3 353.8 L 87.2 352.8 L 90.0 351.9 L 92.8 351.0 L 95.6 350.1 L 98.3 349.2 L 101.0 348.3 L 103.6 347.5 L 106.2 346.6 L 108.7 345.8 L 111.2 345.0 L 113.7 344.1 L 116.2 343.3 L 118.6 342.6 L 121.0 341.8 L 123.4 341.0 L 125.7 340.2 L 128.0 339.5 L 130.3 338.7 L 132.6 338.0 L 134.8 337.3 L 137.0 336.5 L 139.2 335.8 L 141.4 335.1 L 143.6 334.4 L 145.7 333.7 L 147.8 333.0 L 149.9 332.3 L 152.0 331.7 L 154.1 331.0 L 156.1 330.3 L 158.1 329.7 L 160.1 329.0 L 162.1 328.4 L 164.1 327.7 L 166.1 327.1 L 168.0 326.4 L 170.0 325.8 L 171.9 325.2 L 173.8 324.5 L 175.7 323.9 L 177.6 323.3 L 179.5 322.7 L 181.4 322.1 L 183.2 321.5 L 185.1 320.9 L 186.9 320.3 L 188.7 319.7 L 190.5 319.1 L 192.3 318.5 L 194.1 317.9 L 195.9 317.3 L 197.7 316.8 L 199.5 316.2 L 201.2 315.6 L 203.0 315.0 L 204.7 314.5 L 206.5 313.9 L 208.2 313.3 L 209.9 312.8" />
<path class="coast" d="M 209.9 312.8 L 211.6 312.2 L 213.3 311.7 L 215.0 311.1 L 216.6 310.6 L 218.3 310.0 L 219.9 309.5 L 221.5 309.0 L 223.0 308.5 L 224.6 308.0 L 226.1 307.5 L 227.6 307.0 L 229.1 306.5 L 230.6 306.0 L 232.1 305.5 L 233.5 305.1 L 235.0 304.6 L 236.4 304.1 L 237.8 303.7 L 239.2 303.2 L 240.6 302.8 L 242.0 302.3 L 243.3 301.9 L 244.7 301.4 L 246.0 301.0 L 247.3 300.6 L 248.6 300.1 L 249.9 299.7 L 251.2 299.3 L 252.5 298.9 L 253.7 298.5 L 255.0 298.1 L 256.2 297.7 L 257.4 297.3 L 258.7 296.9 L 259.9 296.5 L 261.1 296.1 L 262.2 295.7 L 263.4 295.3 L 264.6 294.9 L 265.7 294.5 L 266.9 294.2 L 268.0 293.8 L 269.2 293.4 L 270.3 293.1 L 271.4 292.7 L 272.5 292.3 L 273.6 292.0 L 274.7 291.6 L 275.8 291.3 L 276.8 290.9 L 277.9 290.6 L 278.9 290.2 L 280.0 289.9 L 281.0 289.6 L 282.1 289.2 L 283.1 288.9 L 284.1 288.6 L 285.1 288.2 L 286.1 287.9 L 287.1 287.6 L 288.1 287.2 L 289.1 286.9 L 290.1 286.6 L 291.1 286.3 L 292.0 286.0 L 293.0 285.7 L 294.0 285.3 L 294.9 285.0 L 295.8 284.7 L 296.8 284.4 L 297.7 284.1 L 298.6 283.8 L 299.6 283.5 L 300.5 283.2 L 301.4 282.9 L 302.3 282.6 L 303.2 282.3 L 304.1 282.0 L 305.0 281.7 L 305.9 281.5 L 306.7 281.2 L 307.6 280.9 L 308.5 280.6 L 309.3 280.3 L 310.2 280.0 L 311.1 279.8 L 311.9 279.5 L 312.8 279.2 L 313.6 278.9 L 314.4 278.7 L 315.3 278.4 L 316.1 278.1 L 316.9 277.8 L 317.7 277.6 L 318.5 277.3 L 319.4 277.1 L 320.2 276.8 L 321.0 276.5 L 321.8 276.3 L 322.6 276.0 L 323.4 275.7 L 324.1 275.5 L 324.9 275.2 L 325.7 275.0 L 326.5 274.7 L 327.3 274.5 L 328.0 274.2 L 328.8 274.0 L 329.6 273.7 L 330.3 273.5 L 331.1 273.2 L 331.8 273.0 L 332.6 272.7 L 333.3 272.5 L 334.1 272.3 L 334.8 272.0 L 335.5 271.8 L 336.3 271.5 L 337.0 271.3 L 337.7 271.1 L 338.4 270.8 L 339.2 270.6 L 339.9 270.4 L 340.6 270.1 L 341.3 269.9 L 342.0 269.7 L 342.7 269.4 L 343.4 269.2 L 344.1 269.0 L 344.8 268.7 L 345.5 268.5 L 346.2 268.3 L 346.9 268.1 L 347.6 267.8 L 348.2 267.6 L 348.9 267.4 L 349.6 267.2 L 350.3 267.0 L 351.0 266.7 L 351.6 266.5 L 352.3 266.3 L 353.0 266.1 L 353.6 265.9 L 354.3 265.7 L 354.9 265.4 L 355.6 265.2 L 356.2 265.0 L 356.9 264.8 L 357.5 264.6 L 358.2 264.4 L 358.8 264.2 L 359.5 264.0 L 360.1 263.8 L 360.7 263.5 L 361.4 263.3 L 362.0 263.1 L 362.6 262.9 L 363.3 262.7 L 363.9 262.5 L 364.5 262.3 L 365.1 262.1 L 365.8 261.9 L 366.4 261.7 L 367.0 261.5 L 367.6 261.3 L 368.2 261.1 L 368.8 260.9 L 369.4 260.7 L 370.0 260.5 L 370.6 260.3 L 371.2 260.1 L 371.8 259.9 L 372.4 259.7 L 373.0 259.5 L 373.6 259.3 L 374.2 259.2 L 374.8 259.0 L 375.4 258.8 L 376.0 258.6 L 376.5 258.4 L 377.1 258.2 L 377.7 258.0 L 378.3 257.8 L 378.9 257.6 L 379.4 257.4 L 380.0 257.3 L 380.6 257.1 L 381.1 256.9 L 381.7 256.7 L 382.3 256.5 L 382.8 256.3 L 383.4 256.2 L 384.0 256.0 L 384.5 255.8 L 385.1 255.6 L 385.6 255.4 L 386.2 255.2 L 386.7 255.1 L 387.3 254.9 L 387.8 254.7 L 388.4 254.5 L 388.9 254.4 L 389.5 254.2 L 390.0 254.0 L 390.5 253.8 L 391.1 253.6 L 391.6 253.5 L 392.2 253.3 L 392.7 253.1 L 393.2 252.9 L 393.8 252.8 L 394.3 252.6 L 394.8 252.4 L 395.3 252.3 L 395.9 252.1 L 396.4 251.9 L 396.9 251.7 L 397.4 251.6 L 397.9 251.4 L 398.5 251.2 L 399.0 251.1 L 399.5 250.9 L 400.0 250.7 L 400.5 250.6 L 401.0 250.4 L 401.5 250.2 L 402.0 250.1 L 402.5 249.9 L 403.0 249.7 L 403.5 249.6 L 404.0 249.4 L 404.5 249.3 L 405.0 249.1 L 405.5 248.9 L 406.0 248.8 L 406.5 248.6 L 407.0 248.4 L 407.5 248.3 L 408.0 248.1 L 408.5 248.0 L 409.0 247.8 L 409.4 247.7 L 409.9 247.5 L 410.4 247.3 L 410.9 247.2 L 411.4 247.0 L 411.9 246.9 L 412.3 246.7 L 412.8 246.6 L 413.3 246.4 L 413.7 246.3 L 414.2 246.1 L 414.7 245.9 L 415.2 245.8 L 415.6 245.6 L 416.1 245.5 L 416.6 245.3 L 417.0 245.2 L 417.5 245.0 L 417.9 244.9 L 418.4 244.7 L 418.9 244.6 L 419.3 244.4 L 419.8 244.3 L 420.2 244.1 L 420.7 244.0 L 421.1 243.8 L 421.6 243.7 L 422.0 243.6 L 422.5 243.4 L 422.9 243.3 L 423.3 243.1 L 423.8 243.0 L 424.2 242.8 L 424.7 242.7 L 425.1 242.5 L 425.5 242.4 L 426.0 242.3 L 426.4 242.1 L 426.9 242.0 L 427.3 241.8 L 427.7 241.7 L 428.1 241.6 L 428.6 241.4 L 429.0 241.3 L 429.4 241.1 L 429.8 241.0 L 430.3 240.9 L 430.7 240.7 L 431.1 240.6 L 431.5 240.4 L 432.0 240.3 L 432.4 240.2 L 432.8 240.0 L 433.2 239.9 L 433.6 239.8 L 434.0 239.6 L 434.4 239.5 L 434.8 239.4 L 435.2 239.2 L 435.7 239.1 L 436.1 239.0 L 436.5 238.8 L 436.9 238.7 L 437.3 238.6 L 437.7 238.4 L 438.1 238.3 L 438.5 238.2 L 438.9 238.1 L 439.3 237.9 L 439.6 237.8 L 440.0 237.7 L 440.4 237.5 L 440.8 237.4 L 441.2 237.3 L 441.6 237.2 L 442.0 237.0 L 442.4 236.9 L 442.7 236.8 L 443.1 236.7 L 443.5 236.5 L 443.9 236.4 L 444.3 236.3 L 444.6 236.2 L 445.0 236.0 L 445.4 235.9 L 445.8 235.8 L 446.1 235.7 L 446.5 235.6 L 446.9 235.4 L 447.3 235.3 L 447.6 235.2 L 448.0 235.1 L 448.3 235.0 L 448.7 234.8 L 449.1 234.7 L 449.4 234.6 L 449.8 234.5 L 450.2 234.4 L 450.5 234.3 L 450.9 234.1 L 451.2 234.0 L 451.6 233.9 L 451.9 233.8 L 452.3 233.7 L 452.6 233.6 L 453.0 233.4 L 453.3 233.3 L 453.7 233.2 L 454.0 233.1 L 454.4 233.0 L 454.7 232.9 L 455.1 232.8 L 455.4 232.7 L 455.7 232.6 L 456.1 232.4 L 456.4 232.3 L 456.7 232.2 L 457.1 232.1 L 457.4 232.0 L 457.7 231.9 L 458.1 231.8 L 458.4 231.7 L 458.7 231.6 L 459.1 231.5 L 459.4 231.4 L 459.7 231.3 L 460.0 231.1 L 460.4 231.0 L 460.7 230.9 L 461.0 230.8 L 461.3 230.7 L 461.6 230.6 L 462.0 230.5 L 462.3 230.4 L 462.6 230.3 L 462.9 230.2 L 463.2 230.1 L 463.5 230.0 L 463.8 229.9 L 464.1 229.8 L 464.5 229.7 L 464.8 229.6 L 465.1 229.5 L 465.4 229.4 L 465.7 229.3 L 466.0 229.2 L 466.3 229.1 L 466.6 229.0 L 466.9 228.9 L 467.2 228.8 L 467.5 228.7 L 467.8 228.6 L 468.1 228.5 L 468.4 228.4 L 468.7 228.3 L 468.9 228.2 L 469.2 228.1 L 469.5 228.0 L 469.8 228.0 L 470.1 227.9 L 470.4 227.8 L 470.7 227.7 L 471.0 227.6 L 471.2 227.5 L 471.5 227.4 L 471.8 227.3 L 472.1 227.2 L 472.4 227.1 L 472.6 227.0 L 472.9 226.9 L 473.2 226.9 L 473.5 226.8 L 473.7 226.7 L 474.0 226.6 L 474.3 226.5 L 474.5 226.4 L 474.8 226.3 L 475.1 226.2 L 475.3 226.1 L 475.6 226.1 L 475.9 226.0 L 476.1 225.9 L 476.4 225.8 L 476.7 225.7 L 476.9 225.6 L 477.2 225.5 L 477.4 225.5 L 477.7 225.4 L 478.0 225.3 L 478.2 225.2 L 478.5 225.1 L 478.7 225.0 L 479.0 225.0 L 479.2 224.9 L 479.5 224.8 L 479.7 224.7 L 480.0 224.6 L 480.2 224.6 L 480.5 224.5 L 480.7 224.4 L 481.0 224.3 L 481.2 224.2 L 481.4 224.2 L 481.7 224.1 L 481.9 224.0 L 482.2 223.9 L 482.4 223.8 L 482.6 223.8 L 482.9 223.7 L 483.1 223.6 L 483.3 223.5 L 483.6 223.5 L 483.8 223.4 L 484.0 223.3 L 484.3 223.2 L 484.5 223.2 L 484.7 223.1 L 485.0 223.0 L 485.2 222.9 L 485.4 222.9 L 485.6 222.8 L 485.9 222.7 L 486.1 222.6 L 486.3 222.6 L 486.5 222.5 L 486.8 222.4 L 487.0 222.4 L 487.2 222.3 L 487.4 222.2 L 487.6 222.1 L 487.8 222.1 L 488.1 222.0 L 488.3 221.9 L 488.5 221.9 L 488.7 221.8 L 488.9 221.7 L 489.1 221.7 L 489.3 221.6 L 489.5 221.5 L 489.7 221.5 L 490.0 221.4 L 490.2 221.3 L 490.4 221.2 L 490.6 221.2 L 490.8 221.1 L 491.0 221.0 L 491.2 221.0 L 491.4 220.9 L 491.6 220.9 L 491.8 220.8 L 492.0 220.7 L 492.2 220.7 L 492.4 220.6 L 492.6 220.5 L 492.8 220.5 L 493.0 220.4 L 493.2 220.3 L 493.3 220.3 L 493.5 220.2 L 493.7 220.2 L 493.9 220.1 L 494.1 220.0 L 494.3 220.0 L 494.5 219.9 L 494.7 219.8 L 494.9 219.8 L 495.0 219.7 L 495.2 219.7 L 495.4 219.6 L 495.6 219.5 L 495.8 219.5 L 496.0 219.4 L 496.1 219.4 L 496.3 219.3 L 496.5 219.2 L 496.7 219.2 L 496.9 219.1 L 497.0 219.1 L 497.2 219.0 L 497.4 219.0 L 497.6 218.9 L 497.7 218.8 L 497.9 218.8 L 498.1 218.7 L 498.3 218.7 L 498.4 218.6 L 498.6 218.6 L 498.8 218.5 L 498.9 218.5 L 499.1 218.4 L 499.3 218.3 L 499.4 218.3 L 499.6 218.2 L 499.8 218.2 L 499.9 218.1 L 500.1 218.1 L 500.3 218.0 L 500.4 218.0 L 500.6 217.9 L 500.7 217.9 L 500.9 217.8 L 501.1 217.8 L 501.2 217.7 L 501.4 217.7 L 501.5 217.6 L 501.7 217.6 L 501.8 217.5 L 502.0 217.5 L 502.2 217.4 L 502.3 217.4 L 502.5 217.3 L 502.6 217.3 L 502.8 217.2 L 502.9 217.2 L 503.1 217.1 L 503.2 217.1 L 503.4 217.0 L 503.5 217.0 L 503.7 216.9 L 503.8 216.9 L 504.0 216.8 L 504.1 216.8 L 504.2 216.7 L 504.4 216.7 L 504.5 216.6 L 504.7 216.6 L 504.8 216.5 L 505.0 216.5 L 505.1 216.4 L 505.2 216.4 L 505.4 216.3 L 505.5 216.3 L 505.7 216.3 L 505.8 216.2 L 505.9 216.2 L 506.1 216.1 L 506.2 216.1 L 506.3 216.0 L 506.5 216.0 L 506.6 215.9 L 506.7 215.9 L 506.9 215.9 L 507.0 215.8 L 507.1 215.8 L 507.3 215.7 L 507.4 215.7 L 507.5 215.6 L 507.7 215.6 L 507.8 215.6 L 507.9 215.5 L 508.1 215.5 L 508.2 215.4 L 508.3 215.4 L 508.4 215.4 L 508.6 215.3 L 508.6 215.3" />
<circle class="impact" cx="508.6" cy="215.3" r="5" />
</g>
<g transform="translate(60,680)">
<rect class="panel" width="560" height="560" />
<text class="title" x="10" y="18">FRONT Z x Y</text>
<text class="subtitle" x="10" y="32">Z -&gt; cross (horiz),  Y -&gt; alt (vert)</text>
<line class="grid" x1="60.0" y1="50.0" x2="60.0" y2="520.0" />
<line class="grid" x1="60.0" y1="520.0" x2="530.0" y2="520.0" />
<text class="tick" x="60.0" y="534.0" text-anchor="middle">-932</text>
<text class="tick" x="56.0" y="524.0" text-anchor="end">0</text>
<line class="grid" x1="154.0" y1="50.0" x2="154.0" y2="520.0" />
<line class="grid" x1="60.0" y1="426.0" x2="530.0" y2="426.0" />
<text class="tick" x="154.0" y="534.0" text-anchor="middle">-401</text>
<text class="tick" x="56.0" y="430.0" text-anchor="end">530</text>
<line class="grid" x1="248.0" y1="50.0" x2="248.0" y2="520.0" />
<line class="grid" x1="60.0" y1="332.0" x2="530.0" y2="332.0" />
<text class="tick" x="248.0" y="534.0" text-anchor="middle">129</text>
<text class="tick" x="56.0" y="336.0" text-anchor="end">1.1k</text>
<line class="grid" x1="342.0" y1="50.0" x2="342.0" y2="520.0" />
<line class="grid" x1="60.0" y1="238.0" x2="530.0" y2="238.0" />
<text class="tick" x="342.0" y="534.0" text-anchor="middle">660</text>
<text class="tick" x="56.0" y="242.0" text-anchor="end">1.6k</text>
<line class="grid" x1="436.0" y1="50.0" x2="436.0" y2="520.0" />
<line class="grid" x1="60.0" y1="144.0" x2="530.0" y2="144.0" />
<text class="tick" x="436.0" y="534.0" text-anchor="middle">1.2k</text>
<text class="tick" x="56.0" y="148.0" text-anchor="end">2.1k</text>
<line class="grid" x1="530.0" y1="50.0" x2="530.0" y2="520.0" />
<line class="grid" x1="60.0" y1="50.0" x2="530.0" y2="50.0" />
<text class="tick" x="530.0" y="534.0" text-anchor="middle">1.7k</text>
<text class="tick" x="56.0" y="54.0" text-anchor="end">2.7k</text>
<line class="axis" x1="60.0" y1="50.0" x2="60.0" y2="520.0" />
<line class="axis" x1="60.0" y1="520.0" x2="530.0" y2="520.0" />
<line class="ground" x1="60.0" y1="520.0" x2="530.0" y2="520.0" />
<path class="boost" d="M 225.3 519.4 L 226.2 516.3 L 227.2 513.2 L 228.1 510.3 L 229.0 507.3 L 229.9 504.5 L 230.8 501.6 L 231.7 498.9 L 232.5 496.1 L 233.4 493.4 L 234.2 490.8 L 235.0 488.2 L 235.9 485.6 L 236.7 483.1 L 237.4 480.6 L 238.2 478.1 L 239.0 475.7 L 239.8 473.3 L 240.5 470.9 L 241.3 468.5 L 242.0 466.2 L 242.7 464.0 L 243.5 461.7 L 244.2 459.5 L 244.9 457.3 L 245.6 455.1 L 246.3 452.9 L 247.0 450.8 L 247.7 448.7 L 248.3 446.6 L 249.0 444.5 L 249.7 442.5 L 250.3 440.4 L 251.0 438.4 L 251.6 436.4 L 252.3 434.5 L 252.9 432.5 L 253.6 430.6 L 254.2 428.7 L 254.8 426.8 L 255.5 424.9 L 256.1 423.0 L 256.7 421.1 L 257.3 419.3 L 257.9 417.5 L 258.5 415.7 L 259.1 413.9 L 259.7 412.1 L 260.3 410.3 L 260.9 408.5 L 261.5 406.8 L 262.1 405.1 L 262.7 403.3 L 263.2 401.6 L 263.8 399.9 L 264.4 398.2 L 265.0 396.5 L 265.5 394.9 L 266.1 393.2 L 266.7 391.6 L 267.2 389.9" />
<path class="coast" d="M 267.2 389.9 L 267.8 388.3 L 268.3 386.7 L 268.9 385.1 L 269.4 383.6 L 270.0 382.0 L 270.5 380.5 L 271.0 379.1 L 271.5 377.6 L 272.0 376.1 L 272.5 374.7 L 273.0 373.3 L 273.5 371.9 L 274.0 370.6 L 274.5 369.2 L 274.9 367.9 L 275.4 366.6 L 275.9 365.3 L 276.3 364.0 L 276.8 362.8 L 277.2 361.6 L 277.7 360.3 L 278.1 359.1 L 278.6 357.9 L 279.0 356.8 L 279.4 355.6 L 279.9 354.5 L 280.3 353.3 L 280.7 352.2 L 281.1 351.1 L 281.5 350.0 L 281.9 349.0 L 282.3 347.9 L 282.7 346.9 L 283.1 345.8 L 283.5 344.8 L 283.9 343.8 L 284.3 342.8 L 284.7 341.8 L 285.1 340.9 L 285.5 339.9 L 285.8 339.0 L 286.2 338.0 L 286.6 337.1 L 286.9 336.2 L 287.3 335.3 L 287.7 334.4 L 288.0 333.5 L 288.4 332.7 L 288.7 331.8 L 289.1 331.0 L 289.4 330.1 L 289.8 329.3 L 290.1 328.5 L 290.4 327.7 L 290.8 326.9 L 291.1 326.1 L 291.4 325.4 L 291.8 324.6 L 292.1 323.8 L 292.4 323.1 L 292.8 322.4 L 293.1 321.6 L 293.4 320.9 L 293.7 320.2 L 294.0 319.5 L 294.3 318.8 L 294.7 318.1 L 295.0 317.5 L 295.3 316.8 L 295.6 316.1 L 295.9 315.5 L 296.2 314.8 L 296.5 314.2 L 296.8 313.6 L 297.1 313.0 L 297.4 312.4 L 297.7 311.8 L 298.0 311.2 L 298.3 310.6 L 298.5 310.0 L 298.8 309.4 L 299.1 308.9 L 299.4 308.3 L 299.7 307.8 L 300.0 307.2 L 300.2 306.7 L 300.5 306.2 L 300.8 305.7 L 301.1 305.2 L 301.3 304.7 L 301.6 304.2 L 301.9 303.7 L 302.2 303.2 L 302.4 302.7 L 302.7 302.2 L 302.9 301.8 L 303.2 301.3 L 303.5 300.9 L 303.7 300.4 L 304.0 300.0 L 304.3 299.6 L 304.5 299.1 L 304.8 298.7 L 305.0 298.3 L 305.3 297.9 L 305.5 297.5 L 305.8 297.1 L 306.0 296.7 L 306.3 296.3 L 306.5 296.0 L 306.8 295.6 L 307.0 295.2 L 307.3 294.9 L 307.5 294.5 L 307.7 294.2 L 308.0 293.9 L 308.2 293.5 L 308.5 293.2 L 308.7 292.9 L 308.9 292.6 L 309.2 292.2 L 309.4 291.9 L 309.6 291.6 L 309.9 291.4 L 310.1 291.1 L 310.3 290.8 L 310.6 290.5 L 310.8 290.2 L 311.0 290.0 L 311.3 289.7 L 311.5 289.5 L 311.7 289.2 L 311.9 289.0 L 312.2 288.7 L 312.4 288.5 L 312.6 288.3 L 312.8 288.0 L 313.0 287.8 L 313.3 287.6 L 313.5 287.4 L 313.7 287.2 L 313.9 287.0 L 314.1 286.8 L 314.3 286.6 L 314.6 286.4 L 314.8 286.3 L 315.0 286.1 L 315.2 285.9 L 315.4 285.8 L 315.6 285.6 L 315.8 285.5 L 316.0 285.3 L 316.2 285.2 L 316.5 285.0 L 316.7 284.9 L 316.9 284.8 L 317.1 284.7 L 317.3 284.5 L 317.5 284.4 L 317.7 284.3 L 317.9 284.2 L 318.1 284.1 L 318.3 284.0 L 318.5 283.9 L 318.7 283.8 L 318.9 283.8 L 319.1 283.7 L 319.3 283.6 L 319.5 283.5 L 319.7 283.5 L 319.9 283.4 L 320.1 283.4 L 320.3 283.3 L 320.5 283.3 L 320.7 283.2 L 320.8 283.2 L 321.0 283.2 L 321.2 283.1 L 321.4 283.1 L 321.6 283.1 L 321.8 283.1 L 322.0 283.1 L 322.2 283.1 L 322.4 283.1 L 322.6 283.1 L 322.7 283.1 L 322.9 283.1 L 323.1 283.1 L 323.3 283.1 L 323.5 283.2 L 323.7 283.2 L 323.8 283.2 L 324.0 283.3 L 324.2 283.3 L 324.4 283.4 L 324.6 283.4 L 324.8 283.5 L 324.9 283.5 L 325.1 283.6 L 325.3 283.7 L 325.5 283.7 L 325.6 283.8 L 325.8 283.9 L 326.0 284.0 L 326.2 284.1 L 326.4 284.1 L 326.5 284.2 L 326.7 284.3 L 326.9 284.5 L 327.1 284.6 L 327.2 284.7 L 327.4 284.8 L 327.6 284.9 L 327.7 285.0 L 327.9 285.2 L 328.1 285.3 L 328.3 285.4 L 328.4 285.6 L 328.6 285.7 L 328.8 285.9 L 328.9 286.0 L 329.1 286.2 L 329.3 286.3 L 329.4 286.5 L 329.6 286.7 L 329.8 286.8 L 329.9 287.0 L 330.1 287.2 L 330.3 287.4 L 330.4 287.6 L 330.6 287.8 L 330.7 287.9 L 330.9 288.1 L 331.1 288.3 L 331.2 288.6 L 331.4 288.8 L 331.6 289.0 L 331.7 289.2 L 331.9 289.4 L 332.0 289.6 L 332.2 289.9 L 332.3 290.1 L 332.5 290.3 L 332.7 290.6 L 332.8 290.8 L 333.0 291.1 L 333.1 291.3 L 333.3 291.6 L 333.4 291.8 L 333.6 292.1 L 333.7 292.3 L 333.9 292.6 L 334.1 292.9 L 334.2 293.2 L 334.4 293.4 L 334.5 293.7 L 334.7 294.0 L 334.8 294.3 L 335.0 294.6 L 335.1 294.9 L 335.3 295.2 L 335.4 295.5 L 335.6 295.8 L 335.7 296.1 L 335.9 296.4 L 336.0 296.7 L 336.2 297.1 L 336.3 297.4 L 336.4 297.7 L 336.6 298.0 L 336.7 298.4 L 336.9 298.7 L 337.0 299.0 L 337.2 299.4 L 337.3 299.7 L 337.5 300.1 L 337.6 300.4 L 337.7 300.8 L 337.9 301.2 L 338.0 301.5 L 338.2 301.9 L 338.3 302.3 L 338.4 302.6 L 338.6 303.0 L 338.7 303.4 L 338.9 303.8 L 339.0 304.2 L 339.1 304.5 L 339.3 304.9 L 339.4 305.3 L 339.6 305.7 L 339.7 306.1 L 339.8 306.5 L 340.0 306.9 L 340.1 307.4 L 340.2 307.8 L 340.4 308.2 L 340.5 308.6 L 340.6 309.0 L 340.8 309.4 L 340.9 309.9 L 341.0 310.3 L 341.2 310.7 L 341.3 311.2 L 341.4 311.6 L 341.6 312.1 L 341.7 312.5 L 341.8 313.0 L 341.9 313.4 L 342.1 313.9 L 342.2 314.3 L 342.3 314.8 L 342.5 315.3 L 342.6 315.7 L 342.7 316.2 L 342.8 316.7 L 343.0 317.1 L 343.1 317.6 L 343.2 318.1 L 343.3 318.6 L 343.5 319.1 L 343.6 319.6 L 343.7 320.1 L 343.8 320.5 L 344.0 321.0 L 344.1 321.5 L 344.2 322.0 L 344.3 322.6 L 344.4 323.1 L 344.6 323.6 L 344.7 324.1 L 344.8 324.6 L 344.9 325.1 L 345.0 325.6 L 345.2 326.2 L 345.3 326.7 L 345.4 327.2 L 345.5 327.8 L 345.6 328.3 L 345.7 328.8 L 345.9 329.4 L 346.0 329.9 L 346.1 330.4 L 346.2 331.0 L 346.3 331.5 L 346.4 332.1 L 346.6 332.7 L 346.7 333.2 L 346.8 333.8 L 346.9 334.3 L 347.0 334.9 L 347.1 335.5 L 347.2 336.0 L 347.3 336.6 L 347.4 337.2 L 347.6 337.7 L 347.7 338.3 L 347.8 338.9 L 347.9 339.5 L 348.0 340.1 L 348.1 340.7 L 348.2 341.2 L 348.3 341.8 L 348.4 342.4 L 348.5 343.0 L 348.6 343.6 L 348.7 344.2 L 348.9 344.8 L 349.0 345.4 L 349.1 346.0 L 349.2 346.7 L 349.3 347.3 L 349.4 347.9 L 349.5 348.5 L 349.6 349.1 L 349.7 349.7 L 349.8 350.3 L 349.9 351.0 L 350.0 351.6 L 350.1 352.2 L 350.2 352.9 L 350.3 353.5 L 350.4 354.1 L 350.5 354.8 L 350.6 355.4 L 350.7 356.0 L 350.8 356.7 L 350.9 357.3 L 351.0 358.0 L 351.1 358.6 L 351.2 359.3 L 351.3 359.9 L 351.4 360.6 L 351.5 361.2 L 351.6 361.9 L 351.7 362.5 L 351.8 363.2 L 351.9 363.9 L 352.0 364.5 L 352.0 365.2 L 352.1 365.9 L 352.2 366.5 L 352.3 367.2 L 352.4 367.9 L 352.5 368.6 L 352.6 369.2 L 352.7 369.9 L 352.8 370.6 L 352.9 371.3 L 353.0 372.0 L 353.1 372.6 L 353.1 373.3 L 353.2 374.0 L 353.3 374.7 L 353.4 375.4 L 353.5 376.1 L 353.6 376.8 L 353.7 377.5 L 353.8 378.2 L 353.9 378.9 L 353.9 379.6 L 354.0 380.3 L 354.1 381.0 L 354.2 381.7 L 354.3 382.4 L 354.4 383.1 L 354.5 383.8 L 354.5 384.6 L 354.6 385.3 L 354.7 386.0 L 354.8 386.7 L 354.9 387.4 L 355.0 388.1 L 355.0 388.9 L 355.1 389.6 L 355.2 390.3 L 355.3 391.0 L 355.4 391.8 L 355.4 392.5 L 355.5 393.2 L 355.6 394.0 L 355.7 394.7 L 355.8 395.4 L 355.8 396.2 L 355.9 396.9 L 356.0 397.6 L 356.1 398.4 L 356.2 399.1 L 356.2 399.9 L 356.3 400.6 L 356.4 401.4 L 356.5 402.1 L 356.5 402.9 L 356.6 403.6 L 356.7 404.4 L 356.8 405.1 L 356.8 405.9 L 356.9 406.6 L 357.0 407.4 L 357.1 408.1 L 357.1 408.9 L 357.2 409.6 L 357.3 410.4 L 357.4 411.2 L 357.4 411.9 L 357.5 412.7 L 357.6 413.5 L 357.6 414.2 L 357.7 415.0 L 357.8 415.8 L 357.9 416.5 L 357.9 417.3 L 358.0 418.1 L 358.1 418.9 L 358.1 419.6 L 358.2 420.4 L 358.3 421.2 L 358.3 422.0 L 358.4 422.7 L 358.5 423.5 L 358.5 424.3 L 358.6 425.1 L 358.7 425.9 L 358.8 426.7 L 358.8 427.4 L 358.9 428.2 L 359.0 429.0 L 359.0 429.8 L 359.1 430.6 L 359.1 431.4 L 359.2 432.2 L 359.3 433.0 L 359.3 433.8 L 359.4 434.6 L 359.5 435.3 L 359.5 436.1 L 359.6 436.9 L 359.7 437.7 L 359.7 438.5 L 359.8 439.3 L 359.8 440.1 L 359.9 440.9 L 360.0 441.7 L 360.0 442.5 L 360.1 443.4 L 360.2 444.2 L 360.2 445.0 L 360.3 445.8 L 360.3 446.6 L 360.4 447.4 L 360.5 448.2 L 360.5 449.0 L 360.6 449.8 L 360.6 450.6 L 360.7 451.4 L 360.8 452.3 L 360.8 453.1 L 360.9 453.9 L 360.9 454.7 L 361.0 455.5 L 361.0 456.3 L 361.1 457.2 L 361.2 458.0 L 361.2 458.8 L 361.3 459.6 L 361.3 460.4 L 361.4 461.3 L 361.4 462.1 L 361.5 462.9 L 361.5 463.7 L 361.6 464.6 L 361.7 465.4 L 361.7 466.2 L 361.8 467.0 L 361.8 467.9 L 361.9 468.7 L 361.9 469.5 L 362.0 470.4 L 362.0 471.2 L 362.1 472.0 L 362.1 472.9 L 362.2 473.7 L 362.2 474.5 L 362.3 475.4 L 362.3 476.2 L 362.4 477.0 L 362.4 477.9 L 362.5 478.7 L 362.5 479.5 L 362.6 480.4 L 362.6 481.2 L 362.7 482.1 L 362.7 482.9 L 362.8 483.7 L 362.8 484.6 L 362.9 485.4 L 362.9 486.3 L 363.0 487.1 L 363.0 488.0 L 363.1 488.8 L 363.1 489.6 L 363.2 490.5 L 363.2 491.3 L 363.3 492.2 L 363.3 493.0 L 363.4 493.9 L 363.4 494.7 L 363.5 495.6 L 363.5 496.4 L 363.6 497.3 L 363.6 498.1 L 363.7 499.0 L 363.7 499.8 L 363.7 500.7 L 363.8 501.5 L 363.8 502.4 L 363.9 503.2 L 363.9 504.1 L 364.0 505.0 L 364.0 505.8 L 364.1 506.7 L 364.1 507.5 L 364.1 508.4 L 364.2 509.2 L 364.2 510.1 L 364.3 511.0 L 364.3 511.8 L 364.4 512.7 L 364.4 513.5 L 364.4 514.4 L 364.5 515.3 L 364.5 516.1 L 364.6 517.0 L 364.6 517.8 L 364.6 518.7 L 364.7 519.6 L 364.7 520.0" />
<circle class="impact" cx="364.7" cy="520.0" r="5" />
</g>
<g transform="translate(680,680)">
<rect class="panel" width="560" height="560" />
<text class="title" x="20" y="38">Missile: 100 kg, v0 = 500 m/s @ 45°, thrust = 5 kN for 3 s</text>
<text class="summary" x="20" y="70">samples       : 658</text>
<text class="summary" x="20" y="92">duration      : 32.84 s</text>
<text class="summary" x="20" y="114">max altitude  : 1336.8 m</text>
<text class="summary" x="20" y="136">impact        : (2414.1, 0.0, 787.8) m</text>
<text class="summary" x="20" y="158">ground range  : 2539.4 m</text>
<text class="summary" x="20" y="180"></text>
<text class="summary-dim" x="20" y="202">legend:</text>
<line class="boost" x1="30" y1="224.0" x2="60" y2="224.0" />
<text class="summary-dim" x="70" y="228.0">boost (thrust on)</text>
<line class="coast" x1="30" y1="246.0" x2="60" y2="246.0" />
<text class="summary-dim" x="70" y="250.0">coast (ballistic)</text>
<circle class="impact" cx="45" cy="268.0" r="5" />
<text class="summary-dim" x="70" y="272.0">impact</text>
</g>
</svg>
